<svg id="Capa_1" data-name="Capa 1" xmlns="http://www.w3.org/2000/svg" viewBox="0 0 79.14 78.93"><defs><style>.cls-1{fill:#52e3a4;}.cls-2{fill:#fff;}</style></defs><title>ActivosFijos_propactcosto</title><path class="cls-1" d="M39.57,1.39C10,1.39,1.49,9.85,1.49,39.47S10,77.55,39.57,77.55s38.08-8.47,38.08-38.08S69.17,1.39,39.57,1.39Z"/><g id="wvXIb6"><path class="cls-2" d="M27.62,59.73H20.79V38.45l-4.38,3.32-2.76-4c.4-.34.73-.67,1.09-1C22.12,31.23,29.53,25.65,36.88,20a3.75,3.75,0,0,1,5.17,0c7.74,5.93,15.53,11.78,23.44,17.75L62.7,41.77l-4.37-3.32V59.86H51.74c-.81-4.14.94-8.62-1.4-12.44.67-.66,2.21.25,1.93-1.61-.19-1.27-1.66-1.64-3.35-.9-.08-.08-.19-.13-.22-.23-1.3-3.8-3.86-5-7.17-4.73-1.67.11-3.35,0-5,0a5.55,5.55,0,0,0-5.73,4,10.16,10.16,0,0,1-.53,1c-1.61-.78-3.21-.42-3.41.8-.28,1.73,1.12,1.05,1.82,1.63-1.91,3.08-.77,6.63-1,10C27.58,58.13,27.62,58.88,27.62,59.73ZM39.43,36.92h.45c4.33-.06,3.8.66,3.79-4.38,0-5.32.72-4.92-4.35-4.91-4.64,0-4-.4-4,4.57C35.34,37.71,34.66,36.84,39.43,36.92Z"/><path class="cls-2" d="M46.57,45.8h-14c.32-3.13,1.35-4.26,3.88-4.31,2,0,4,0,6.08,0C45.14,41.54,46,42.43,46.57,45.8Z"/><path class="cls-2" d="M47.59,57.18C48,60,48,60,45.76,60H31.37V57.18Z"/><path class="cls-2" d="M28.83,50.07c3.11-.53,4.9.25,4.87,2C30.31,52.43,28.86,51.85,28.83,50.07Z"/><path class="cls-2" d="M45.36,52.15C45.19,50.32,46.52,49.7,50,50,50.36,51.71,49.17,52.26,45.36,52.15Z"/></g></svg>