<svg id="Capa_1" data-name="Capa 1" xmlns="http://www.w3.org/2000/svg" viewBox="0 0 79.14 78.93"><defs><style>.cls-1{fill:#52e3a4;}.cls-2{fill:#fff;}</style></defs><title>ActivosFijos_propactcosto</title><path class="cls-1" d="M39.57,1C9.63,1,1.08,9.53,1.08,39.47S9.66,78,39.57,78,78.06,69.4,78.06,39.47,69.49,1,39.57,1Z"/><g id="WTbIak.tif"><path class="cls-2" d="M40.81,53V47c4.62.05,7.49-2.42,7.4-6.29-.08-3.28-2.76-6.52-7.4-6V28.31h6c1.13,0,1.25-.2.73-1.17a4.93,4.93,0,1,1,8.83-.2l-.22.41c-.34.65-.17.95.58,1h5c.52,0,1,0,1.54,0,.76-.06,1,.3,1,1q0,7.13,0,14.24c0,2.77,0,5.55,0,8.32,0,1-.1,1.09-1.11,1.09H40.81Z"/><path class="cls-2" d="M39.55,28.3c0,2.44,0,4.75,0,7.06,0,1,.18,1.1,1.09.82a4.93,4.93,0,0,1,5.46,7.5,5,5,0,0,1-5.35,2c-1.13-.31-1.21-.25-1.21,1,0,2.08,0,4.16,0,6.31l-1.41,0h-6c-.87,0-1-.25-.61-1a4.94,4.94,0,0,0-6.77-6.7,4.87,4.87,0,0,0-2.35,5.39,7.12,7.12,0,0,0,.6,1.5c.24.52.09.82-.47.83-2.31,0-4.62,0-6.93,0-.64,0-.73-.42-.73-.94q0-4.23,0-8.47,0-7.08,0-14.16c0-1,.1-1.08,1-1.08h6.24c1,0,1.16.21.7,1.12a4.88,4.88,0,0,0,.87,5.82,4.94,4.94,0,0,0,5.9.83,4.89,4.89,0,0,0,2.42-5.23,8.29,8.29,0,0,0-.64-1.72c-.2-.49-.07-.8.44-.8C34.4,28.3,36.93,28.3,39.55,28.3Z"/></g></svg>