<svg xmlns="http://www.w3.org/2000/svg" viewBox="0 0 41.8 41.69"><defs><style>.cls-1{fill:#fff;}</style></defs><title>ActivosFijos_propactcosto</title><g id="Capa_2" data-name="Capa 2"><g id="Bxet5o"><path class="cls-1" d="M41.34,20.8A20.44,20.44,0,1,1,20.88.42,20.43,20.43,0,0,1,41.34,20.8ZM20.17,4.17A16.73,16.73,0,1,0,37.64,19.9,16.69,16.69,0,0,0,20.17,4.17Z"/><path class="cls-1" d="M26.62,29.81c-.41,1.82-1.36,2.67-2.95,2.73-.8,0-1.61,0-2.41,0a2.93,2.93,0,0,1-3.19-3.16c0-2.38,0-4.75,0-7.12V20.81H15.3A2.67,2.67,0,0,1,18,18c.85-.05,1.7,0,2.55,0a2.89,2.89,0,0,1,3.19,3.13c0,2.5,0,5,0,7.52,0,.3.05.61.08,1Z"/><path class="cls-1" d="M20.84,9.34a2.71,2.71,0,0,1,2.86,2.83,2.8,2.8,0,1,1-5.6,0A2.71,2.71,0,0,1,20.84,9.34Z"/></g></g></svg>