<svg id="Capa_1" data-name="Capa 1" xmlns="http://www.w3.org/2000/svg" viewBox="0 0 79.14 78.93"><defs><style>.cls-1{fill:#52e3a4;}.cls-2{fill:#fff;}</style></defs><title>ActivosFijos_propactcosto</title><path class="cls-1" d="M39.57,1.4C10,1.4,1.51,9.86,1.51,39.47S10,77.53,39.57,77.53s38.07-8.46,38.07-38.06S69.16,1.4,39.57,1.4Z"/><g id="KcXyvF"><path class="cls-2" d="M21.19,41.75H33.68L28,47c3.2,4.43,7.45,6.75,12.89,6.14,6.75-.75,10.71-4.82,12.36-11.34h4.53a13.49,13.49,0,0,1-1,4c-2.8,7-7.92,11-15.36,12-.16,0-.32.07-.48.1H38.16a2.37,2.37,0,0,0-.36-.09,18.2,18.2,0,0,1-12.37-6.56c-.29-.34-.55-.69-.85-1-.42.38-.78.73-1.16,1.06l-2.23,2Z"/><path class="cls-2" d="M58,37.18H46.52l4.88-4.73a13.49,13.49,0,0,0-13.07-6.68c-6.78.79-10.76,4.81-12.43,11.36H21.37a14,14,0,0,1,.89-3.82c2.77-7,7.91-11.1,15.43-12.12.16,0,.31-.07.47-.1H41a3.2,3.2,0,0,0,.42.1,17.94,17.94,0,0,1,10.78,4.94c.9.86,1.68,1.83,2.54,2.77l.36-.35L58,25.76Z"/></g></svg>