<svg id="Capa_1" data-name="Capa 1" xmlns="http://www.w3.org/2000/svg" viewBox="0 0 41.67 41.67"><defs><style>.cls-1{fill:#52e3a4;}</style></defs><title>ActivosFijos_propActivos</title><g id="ct8448"><path class="cls-1" d="M.63,22.94A7.81,7.81,0,0,1,3.5,18.15a2.36,2.36,0,0,0,1-1.9A11.31,11.31,0,0,1,24.88,11a1.25,1.25,0,0,0,1.46.6A8.09,8.09,0,0,1,35.13,16a2,2,0,0,0,.87.89,7.55,7.55,0,0,1,4.92,6,.72.72,0,0,0,.12.23v1.8a16,16,0,0,1-.74,2.28,7.23,7.23,0,0,1-6.67,4.37c-2.54.07-5.07,0-7.66,0v-2.5H29.1c1.5,0,3,0,4.49,0A5,5,0,0,0,33.81,19l-.26,0c-2.11-5-5-6.26-9.3-3.89a9,9,0,0,0-5-5.5,8.7,8.7,0,0,0-5.8-.38A8.86,8.86,0,0,0,7,18.88,16.56,16.56,0,0,0,4.53,20.6a4.63,4.63,0,0,0-1,5.3,4.65,4.65,0,0,0,4.39,3.15c2.24.06,4.49,0,6.74,0h1v2.5h-.83c-2.15,0-4.31,0-6.46,0A7.43,7.43,0,0,1,.77,25.34c0-.15-.1-.28-.14-.42Z"/><path class="cls-1" d="M14.54,25.3l6.29-7.56,6.27,7.52H23.36v10h-5v-10Z"/></g></svg>