<svg id="Capa_1" data-name="Capa 1" xmlns="http://www.w3.org/2000/svg" viewBox="0 0 79.14 78.93"><defs><style>.cls-1{fill:#52e3a4;}.cls-2{fill:#fff;}</style></defs><title>ActivosFijos_propactcosto</title><path class="cls-1" d="M39.57,1.22C9.82,1.22,1.32,9.72,1.32,39.47S9.84,77.72,39.57,77.72s38.25-8.5,38.25-38.25S69.3,1.22,39.57,1.22Z"/><g id="ra0siT.tif"><path class="cls-2" d="M59.69,35.85v7.24c-.07.29-.17.57-.21.86A20.54,20.54,0,0,1,44.65,61.3c-1.15.33-2.33.52-3.5.78H37.08a4.75,4.75,0,0,0-.64-.2C27.69,60.42,21.94,55.44,19.35,47a29,29,0,0,1-.49-12.78,20.5,20.5,0,0,1,40-2.31C59.24,33.2,59.42,34.54,59.69,35.85ZM39.1,18.6A18.79,18.79,0,1,0,57.9,37.42,18.75,18.75,0,0,0,39.1,18.6Zm3.36,41.48V57.66c-2.92.27-2.92.27-2.43,2.67Zm-4-2.17-2.57-.18v2.38l2.57.22Zm7.67-1.18c-2.42.56-2.54.73-2,2.82C46.24,59.27,46.38,59.08,46.09,56.73Zm-13.85.05c-.32,2.33-.07,2.66,2.1,2.83V57.37Zm-1.6,1.4c.39-2,.15-2.44-1.61-2.78C28.85,57.5,28.92,57.62,30.64,58.18Zm17.11-.06c1.81-.61,2.07-1.11,1.47-2.82C47.42,56,47.39,56.08,47.75,58.12ZM26,53.33c-.32,1.56-.07,2,1.51,2.78C27.71,54.25,27.65,54.15,26,53.33Zm26.43-.21C50.61,54.17,50.52,54.37,51,56,52.54,55,52.55,55,52.42,53.12ZM54.83,51l-.47-.14-.58,1.81.49.15Zm-30.76,2,.51-.12L24,51.09l-.51.17Z"/><path class="cls-2" d="M39.37,53.1A15.73,15.73,0,1,1,55.13,37.25,15.77,15.77,0,0,1,39.37,53.1Zm0-29.07c-7.71,0-14.23,6.3-14.25,13.74s6.67,13.95,14.31,13.86a14.09,14.09,0,0,0,14.13-13.5A14,14,0,0,0,39.35,24Z"/><path class="cls-2" d="M30.39,32.74l1.44-1.31,5.59,6,2.83-3.31L46,40l.13-1.87h1.78v5.23H43v-1.8l1.16-.08L40,37.37l-2.49,3Z"/></g></svg>