<svg id="Capa_1" data-name="Capa 1" xmlns="http://www.w3.org/2000/svg" viewBox="0 0 79.09 78.8"><defs><style>.cls-1{fill:#ff9e02;}.cls-2{fill:#fff;}</style></defs><title>ListaNegra_prop</title><path class="cls-1" d="M39.54.64C9.39.64.78,9.25.78,39.4S9.41,78.17,39.54,78.17,78.31,69.55,78.31,39.4,69.67.64,39.54.64Z"/><path class="cls-2" d="M45.86,27.41c3.1,0,6,0,8.83,0a4.49,4.49,0,0,1,3.71,1.47c2.27,2.87,4.43,5.83,6.52,8.84a4.52,4.52,0,0,1,.56,2.41c.06,3.35-.1,6.71.08,10.06.1,1.91-1.86,3.76-3.48,3.53-1.28-.19-1.85.31-2.36,1.51a5.44,5.44,0,0,1-5.19,3.44c-3.35.16-5.47-1.23-6.61-4.31-.07-.18-.2-.52-.26-.51-1.24.17-2.27-1-3.57-.5a5.89,5.89,0,0,1-2,.35c-2.59,0-5.17,0-7.76,0a1.24,1.24,0,0,0-1.41.94,5.56,5.56,0,0,1-5.78,4c-3.4,0-4.95-1.06-6.31-4.19a1.47,1.47,0,0,0-1-.69c-1.05-.09-2.1,0-3.15,0a3,3,0,0,1-3.14-3.21q0-13.5,0-27c0-2.4.92-3.34,3.37-3.35,3.8,0,7.59,0,11.39,0H42.1c2.56,0,3.67,1.08,3.76,3.66C45.9,24.94,45.86,26.1,45.86,27.41ZM15.61,36.76V49.49c0,1.64.24,1.86,1.92,1.87a16,16,0,0,0,2.3,0,1.52,1.52,0,0,0,1-.73c1.29-3,3.41-4.51,6.26-4.47,2.66,0,4.81,1.7,6,4.53a1.36,1.36,0,0,0,1,.69c2.63,0,5.26,0,7.88,0,1.19,0,1.57-.52,1.57-1.6q0-12.86,0-25.7c0-1.36-.31-1.62-1.66-1.62-8.25,0-16.49,0-24.74,0-1.17,0-1.55.45-1.54,1.59C15.64,28.27,15.61,32.51,15.61,36.76Zm47.64,5.52H61.8c-2.79,0-5.58,0-8.36,0a3.38,3.38,0,0,1-3.72-3.67c0-1.05,0-2.1,0-3.15,0-2.58,1.14-3.76,3.74-3.87,1.31,0,2.63,0,4,0a3.41,3.41,0,0,0-2.94-1.83c-2.42,0-4.84,0-7.26,0-.94,0-1.41.4-1.39,1.39,0,1.61,0,3.23,0,4.85V49.89c0,1.1.61,1.76,1.38,1.4.41-.18.66-.82.89-1.29a6.37,6.37,0,0,1,11.8.25c.16.37.29.74.43,1.1.59,0,1.11,0,1.64,0a1.09,1.09,0,0,0,1.19-1.21C63.25,47.6,63.25,45.06,63.25,42.28Zm0-2.34c-.8-2.39-2.34-4.06-3.7-5.83a1.12,1.12,0,0,0-.78-.22c-1.77,0-3.55,0-5.33,0A1.23,1.23,0,0,0,52,35.21c0,1.09,0,2.18,0,3.27a1.31,1.31,0,0,0,1.4,1.46C56.63,40,59.82,39.94,63.25,39.94ZM27.07,48.59a4.06,4.06,0,0,0-4.18,3.83A4.12,4.12,0,0,0,27,56.51a4,4,0,0,0,4-3.87A4,4,0,0,0,27.07,48.59Zm26.88,0a3.87,3.87,0,0,0-3.92,4,4,4,0,0,0,8-.15A3.94,3.94,0,0,0,54,48.59Z"/></svg>