<svg id="Capa_1" data-name="Capa 1" xmlns="http://www.w3.org/2000/svg" viewBox="0 0 79.09 78.8"><defs><style>.cls-1{fill:#ff9e02;}.cls-2{fill:#fff;}</style></defs><title>ListaNegra_prop</title><path class="cls-1" d="M39.54.7C9.45.7.85,9.3.85,39.4S9.47,78.1,39.54,78.1s38.7-8.6,38.7-38.7S69.62.7,39.54.7Z"/><g id="IDQcaa.tif"><path class="cls-2" d="M23.69,64.45a1.36,1.36,0,0,0-.21-.1,4.55,4.55,0,0,1-3.64-4.58c0-5.86,0-11.71,0-17.56V25.87a4.59,4.59,0,0,1,3.39-4.69A2.55,2.55,0,0,1,24,21h5v2.1H24.56a2.47,2.47,0,0,0-2.62,2.64q0,13.92,0,27.84c0,2,0,4.07,0,6.11a2.45,2.45,0,0,0,2.6,2.61c10,0,19.93,0,29.89,0a2.63,2.63,0,0,0,2.73-2.76q0-16.92,0-33.85a2.47,2.47,0,0,0-2.61-2.61H50.16V21H54a8.16,8.16,0,0,1,1.31.05,4.53,4.53,0,0,1,3.91,4.6c0,2.22,0,4.44,0,6.65q0,13.57,0,27.15a4.59,4.59,0,0,1-3.74,4.9s-.08.06-.12.08Z"/><path class="cls-2" d="M40.12,14.44a4.29,4.29,0,0,1,3,2.2,1.16,1.16,0,0,0,.35.49,1,1,0,0,0,.58.11l2.33,0a1.84,1.84,0,0,1,1,.2c1.09.73.48,4.39.48,5.5,0,.85-.37,1.23-1.22,1.23H32.45c-.84,0-1.22-.39-1.22-1.24,0-1.46,0-2.93,0-4.4,0-.89.38-1.27,1.28-1.28s1.92,0,2.88,0a.61.61,0,0,0,.44-.26,3.89,3.89,0,0,1,3-2.52.42.42,0,0,0,.12-.08A4.1,4.1,0,0,1,40.12,14.44Zm-.57,2a1.77,1.77,0,0,0-1.81,1.77,1.81,1.81,0,1,0,3.61,0A1.78,1.78,0,0,0,39.55,16.49Z"/><path class="cls-2" d="M35.06,44.12a4.55,4.55,0,1,1-4.56-4.55A4.55,4.55,0,0,1,35.06,44.12Zm-5.2.73-1.27-1.7c-.24-.32-.54-.46-.88-.2a.58.58,0,0,0-.09.9c.59.8,1.18,1.59,1.78,2.38.39.51.79.47,1.16-.06.59-.84,1.2-1.66,1.83-2.47a13.32,13.32,0,0,1,1-1,.56.56,0,0,0,0-.87.57.57,0,0,0-.87,0c-.12.11-.24.21-.35.33C31.42,43.05,30.65,43.93,29.86,44.85Z"/><path class="cls-2" d="M35.06,31.88a4.55,4.55,0,1,1-4.52-4.56A4.55,4.55,0,0,1,35.06,31.88Zm-5.18.76c-.45-.6-.89-1.2-1.34-1.79a.59.59,0,1,0-.95.7c.61.86,1.24,1.71,1.89,2.54a.56.56,0,0,0,1,0,18,18,0,0,1,2.93-3.64.53.53,0,0,0,0-.82.55.55,0,0,0-.86,0c-.31.29-.62.58-.9.9C31.06,31.19,30.48,31.91,29.88,32.64Z"/><path class="cls-2" d="M39.52,56.91H28.8c-.53,0-.81-.19-.79-.57s.38-.55.77-.55H50.31c.39,0,.73.08.76.55s-.25.57-.79.57C46.69,56.92,43.1,56.91,39.52,56.91Z"/><path class="cls-2" d="M43.5,37.44h7c.37,0,.59.21.58.58a.52.52,0,0,1-.58.52H36.62c-.39,0-.64-.18-.63-.58s.26-.53.62-.53H43.5Z"/><path class="cls-2" d="M43.56,49.68H50.3c.4,0,.73.07.77.53s-.26.59-.78.59H36.52a.56.56,0,1,1,0-1.11h7Z"/><path class="cls-2" d="M44.63,44.68H39.16a1.93,1.93,0,0,1-.34,0,.56.56,0,0,1,0-1.12c.41,0,.82,0,1.22,0H50.4c.39,0,.68.17.67.6s-.3.54-.68.54H44.63Z"/><path class="cls-2" d="M44.68,32.44H39.3c-.14,0-.29,0-.44,0-.35,0-.59-.19-.59-.57s.25-.55.6-.56H50.2c.15,0,.34,0,.43,0s.4.36.41.56-.24.38-.42.51-.28,0-.43,0Z"/></g></svg>