<svg id="Capa_1" data-name="Capa 1" xmlns="http://www.w3.org/2000/svg" viewBox="0 0 79.09 78.8"><defs><style>.cls-1{fill:#ff9e02;}.cls-2{fill:#fff;}</style></defs><title>ListaNegra_prop</title><path class="cls-1" d="M39.54,1C9.68,1,1.15,9.54,1.15,39.4S9.7,77.79,39.54,77.79s38.4-8.53,38.4-38.39S69.38,1,39.54,1Z"/><g id="_34YSS1" data-name="34YSS1"><path class="cls-2" d="M24.37,29.77a2.85,2.85,0,0,0,2.69-.55,12.27,12.27,0,0,1,7.09-2.7c4.57-.49,9.13-1,13.69-1.58a2.29,2.29,0,0,1,1.82.55c1.6,1.26,3.25,2.47,5.09,3.85,0-.68,0-1.16,0-1.64a.9.9,0,0,1,.95-1c3.62-.25,7.23-.49,10.84-.77.92-.07,1.29.28,1.41,1.19.58,4.76,1.26,9.5.86,14.31a16.68,16.68,0,0,1-.48,3c-.84,3.14-3.32,5-7.08,5.17-1.75.08-3.51-.11-5.27-.18-.9,0-1.33-.47-1.23-1.39a5.47,5.47,0,0,0,0-.68l-2.26.32c-1.21,2.56-1.9,3-4.54,2.71-1.94,2.43-2.88,2.52-5.65.51-.57.57-1.15,1.13-1.72,1.71-2,2-3.8,1.77-5.18-.63-3-.09-3.54-.41-4.53-2.85-2,0-3.46-.76-3.89-2.9a.53.53,0,0,0-.36-.34c-.7-.22-1.42-.4-2.21-.62,0,.95,0,1.95,0,2.94a1,1,0,0,1-.95,1.18,18.33,18.33,0,0,1-7.87-.15,6.33,6.33,0,0,1-4.88-5.08,34.68,34.68,0,0,1-.28-10.17c.17-2.13.46-4.25.7-6.38.17-1.55.38-1.68,1.9-1.57,3.3.25,6.6.46,9.91.67,1.33.08,1.45.19,1.46,1.5Zm12.93,12c2.48.13,3.25.79,4,3.37l1,.28c.31-.44.5-1,.8-1a1.62,1.62,0,0,1,1.22.4c1.14,1,2.19,2.17,3.3,3.24a1.51,1.51,0,0,0,2.26.16c.63-.65.57-1.45-.22-2.25-1-1-2-2.06-3.07-3.07-.48-.48-.93-1-.32-1.61s1.13-.2,1.61.3c1.18,1.22,2.36,2.45,3.57,3.65a1.52,1.52,0,0,0,2.33.09c.74-.79.71-1.43-.15-2.29-1.85-1.85-3.79-3.62-5.53-5.56A11.13,11.13,0,0,0,42,33.6a2.49,2.49,0,0,0-1.3.07,8.87,8.87,0,0,1-8-.53c-1.25-.75-1.23-1.42-.11-2.3l3-2.36c-2.21.29-4.49.14-6.38,1.63-1.32,1-2.73,2.06-4.6,1.74-.05,0-.1.06-.17.11v8.18c1-1.1,2-2,3.44-2A3.53,3.53,0,0,1,31,40.3C33.62,37.59,36.79,39.2,37.3,41.74Zm-14.67,6V28.31l-9.81-.64c-.11.83-.22,1.55-.3,2.26a53.92,53.92,0,0,0-.47,12.24c.24,2,.68,3.9,2.71,4.88C17.28,48.27,19.93,48.14,22.63,47.71ZM66.32,27.62,57,28.25c-.57,0-.63.35-.63.81q0,9,0,17.94c0,.56.19.82.75.82,1.44,0,2.9.13,4.33,0,3.37-.32,4.92-1.76,5.44-5C67.75,37.76,66.86,32.75,66.32,27.62ZM33.84,31.88a7.63,7.63,0,0,0,6.32-.2,2.1,2.1,0,0,1,1.4-.1,31.46,31.46,0,0,1,3.66,1.23A5.92,5.92,0,0,1,47.1,34c2.31,2.23,4.57,4.52,6.84,6.79.21.21.44.39.8.71,0-3.16,0-6.12,0-9.07a1.34,1.34,0,0,0-.53-.8c-1.87-1.5-3.75-3-5.67-4.42a2.1,2.1,0,0,0-1.27-.36c-1.76.1-3.52.27-5.27.44a6.5,6.5,0,0,0-2.75.46C37.39,28.93,35.73,30.4,33.84,31.88Zm1.51,10.2c-.39-.44-.68-1-1.11-1.16a2,2,0,0,0-1.61.3c-1.24,1.06-2.36,2.25-3.5,3.42a1.55,1.55,0,0,0-.09,2.2,1.51,1.51,0,0,0,2.19-.1c1.15-1.12,2.29-2.25,3.39-3.4A7.15,7.15,0,0,0,35.35,42.08ZM39.28,45c-.37-.43-.64-1-1-1.13a2.2,2.2,0,0,0-1.7.28,45,45,0,0,0-3.48,3.43A1.47,1.47,0,0,0,33,49.73a1.5,1.5,0,0,0,2.18-.11c1.13-1.09,2.25-2.19,3.33-3.33A6.66,6.66,0,0,0,39.28,45Zm-12.75-.91c1,0,2.77-1.76,2.72-2.73a1.43,1.43,0,0,0-2.11-1.23A6.71,6.71,0,0,0,25.27,42,1.36,1.36,0,0,0,26.53,44.06ZM37.86,52a2.28,2.28,0,0,0,.63-.23c1.09-1.08,2.21-2.14,3.23-3.28a1.13,1.13,0,0,0-.17-1.11,1.27,1.27,0,0,0-1.22-.06,35.15,35.15,0,0,0-3.1,3,1.32,1.32,0,0,0-.09,1.11C37.22,51.68,37.63,51.82,37.86,52Zm6-5.4a12.9,12.9,0,0,0-.15,2.35,1.82,1.82,0,0,0,.76,1.19,1.24,1.24,0,0,0,1.19-.25,1.3,1.3,0,0,0,0-1.24A20.38,20.38,0,0,0,43.84,46.59Z"/><path class="cls-2" d="M20,43.15a1.55,1.55,0,0,1,1.49,1.51,1.5,1.5,0,0,1-3,0A1.54,1.54,0,0,1,20,43.15Z"/><path class="cls-2" d="M59.14,46.13a1.54,1.54,0,0,1-1.52-1.47,1.51,1.51,0,0,1,1.48-1.51,1.49,1.49,0,0,1,1.47,1.42A1.53,1.53,0,0,1,59.14,46.13Z"/></g></svg>