<svg id="Capa_1" data-name="Capa 1" xmlns="http://www.w3.org/2000/svg" viewBox="0 0 35.72 36"><defs><style>.cls-1{fill:#70a83b;}.cls-2{fill:#fff;}</style></defs><title>viaticos_prop</title><rect class="cls-1" x="0.75" y="0.89" width="34.22" height="34.22" rx="5.97" ry="5.97"/><g id="wbra4A.tif"><path class="cls-2" d="M8.37,19.82a2.17,2.17,0,0,1,.07-.24,1,1,0,0,1,.24-.37l1.43-1.43a1,1,0,0,1,1.49,0l3.74,3.75.07.07c.09-.12.17-.24.24-.35l3.27-4.82,1.81-2.67,2.81-4.14a3.81,3.81,0,0,1,.29-.41,1,1,0,0,1,.67-.36h.23A1,1,0,0,1,25.2,9l1.67,1.14a1,1,0,0,1,.29,1.45L25,14.75,22.5,18.5c-.74,1.09-1.48,2.17-2.21,3.26l-3,4.38a2.78,2.78,0,0,1-.58.7,1.33,1.33,0,0,1-1,.31,2,2,0,0,1-1.11-.57q-3-2.94-5.9-5.9a1.51,1.51,0,0,1-.24-.36.91.91,0,0,1-.07-.25Z"/></g></svg>