<svg id="Capa_1" data-name="Capa 1" xmlns="http://www.w3.org/2000/svg" viewBox="0 0 35.72 36"><defs><style>.cls-1{fill:#00e7ff;}</style></defs><title>viaticos_prop</title><g id="WRhOz6.tif"><path class="cls-1" d="M1.79,22.06V6.53c0-.18,0-.35.07-.53a5.84,5.84,0,0,1,2.6-4A5.76,5.76,0,0,1,7.78,1H27.94q.33,0,.66,0A5.73,5.73,0,0,1,32,2.56,5.82,5.82,0,0,1,33.93,7V21.6a6.57,6.57,0,0,1-.1,1.08,5.77,5.77,0,0,1-2.37,3.78,5.84,5.84,0,0,1-3.54,1.13H19.19c-.08,0-.14,0-.17.09L17.85,30.6c-.47,1.18-.93,2.35-1.41,3.52a1.47,1.47,0,0,1-1.75.84,1.49,1.49,0,0,1-1-1l-2.5-6.27a.21.21,0,0,0-.22-.15c-1.05,0-2.11,0-3.16,0a6.52,6.52,0,0,1-1.17-.1,5.71,5.71,0,0,1-3-1.51,5.83,5.83,0,0,1-1.78-3.25C1.84,22.5,1.82,22.28,1.79,22.06Zm13.3,7.41,0-.09,1.5-3.75a1.47,1.47,0,0,1,1.49-1h10a2.89,2.89,0,0,0,2.26-1.2A3,3,0,0,0,31,21.61V7a2.94,2.94,0,0,0-3-3H7.59a2.86,2.86,0,0,0-1.93.81,2.9,2.9,0,0,0-.92,2.18V21.64A2.87,2.87,0,0,0,5.92,24a3,3,0,0,0,1.87.59h4.33a1.47,1.47,0,0,1,1.4.93l1,2.55Z"/></g></svg>