<svg id="Capa_1" data-name="Capa 1" xmlns="http://www.w3.org/2000/svg" viewBox="0 0 35.72 36"><defs><style>.cls-1{fill:#ff9e02;}.cls-2{fill:#fff;}</style></defs><title>viaticos_prop</title><rect class="cls-1" x="0.61" y="0.75" width="34.5" height="34.5" rx="6.02" ry="6.02"/><g id="JBoxag.tif"><path class="cls-2" d="M17.87,7.25h7.94a3.76,3.76,0,0,1,1.62.3,1.9,1.9,0,0,1,1,2.6,3.93,3.93,0,0,1-.94,1.27l-6.24,5.81a.48.48,0,0,0-.17.39c0,1.93,0,3.86,0,5.79a1.13,1.13,0,0,1-.39.91l-4.28,4.06a1.43,1.43,0,0,1-.65.35.92.92,0,0,1-1.14-1c0-1,0-2.06,0-3.1,0-2.34,0-4.69,0-7a.54.54,0,0,0-.16-.36c-2.05-1.93-4.12-3.86-6.18-5.78a3.85,3.85,0,0,1-1-1.42,1.88,1.88,0,0,1,.91-2.42,3.11,3.11,0,0,1,1.5-.36l5.37,0h2.85Zm8.51,2.2a2.06,2.06,0,0,0-.28,0l-2.37,0H10c-.2,0-.4,0-.6,0l-.09.13a3.72,3.72,0,0,1,.45.33C11.9,11.93,14,14,16.2,16a1.47,1.47,0,0,1,.47,1.12c0,2.58,0,5.16,0,7.74v.31L16.9,25l2-1.88a.51.51,0,0,0,.18-.41c0-1.86,0-3.72,0-5.58A1.37,1.37,0,0,1,19.5,16c2.16-2,4.31-4.08,6.46-6.12Z"/></g></svg>