<svg id="Capa_1" data-name="Capa 1" xmlns="http://www.w3.org/2000/svg" viewBox="0 0 35.72 36"><defs><style>.cls-1{fill:#ff9e02;}.cls-2{fill:#fff;}</style></defs><title>viaticos_prop</title><rect class="cls-1" x="0.61" y="0.75" width="34.5" height="34.5" rx="6.02" ry="6.02"/><g id="_7Lqjif" data-name="7Lqjif"><path class="cls-2" d="M10.49,13.75V10A2.14,2.14,0,0,1,12.9,7.55h12A2.16,2.16,0,0,1,27.33,10V26.05a2.15,2.15,0,0,1-2.4,2.4h-12a2.13,2.13,0,0,1-2.4-2.38c0-.9,0-1.79,0-2.68a.21.21,0,0,0,0-.11c-1.65-.48-2-1-2-2.78v-4C8.39,14.77,8.78,14.25,10.49,13.75Zm14.68,1.59V9.67H12.62v4.14h.73c3,0,6.08,0,9.12,0A2.53,2.53,0,0,1,25.17,15.34Zm0,6.38a2.33,2.33,0,0,1-2.49,1.5H12.63V26.3H25.19Zm-1.11-4.28A1.76,1.76,0,0,0,21.67,16a1.6,1.6,0,0,0-1.32,1.36,1.6,1.6,0,0,0,1.18,1.48,3.93,3.93,0,0,1,1,.39c.19.14.39.57.31.71a.86.86,0,0,1-.74.37c-.33-.1-.58-.43-.93-.73h-.95a1.6,1.6,0,0,0,1.4,1.59A2.34,2.34,0,0,0,24,20.33a1.31,1.31,0,0,0-.38-1.71,6.71,6.71,0,0,0-1-.51,3,3,0,0,1-.69-.34,1.16,1.16,0,0,1-.28-.65c0-.11.22-.33.34-.33s.69,0,.74.17C23,17.73,23.56,17.44,24.08,17.44Zm-9.33,3.64c-.4-.77-.73-1.46-1.11-2.13a.83.83,0,0,1,0-.93c.38-.65.72-1.34,1.11-2.08a4.68,4.68,0,0,1-.54,0,.86.86,0,0,0-1.13.73,7.16,7.16,0,0,1-.44,1l-.41-.89c-.44-1-.44-1-1.63-.76.34.66.66,1.32,1,1.94a.89.89,0,0,1,0,1c-.38.65-.71,1.33-1.1,2.08a3.61,3.61,0,0,1,.6,0,.83.83,0,0,0,1-.68c.11-.33.28-.65.47-1.08.24.52.41,1,.63,1.37a.65.65,0,0,0,.39.36A6.27,6.27,0,0,0,14.75,21.08ZM17,20.24V16H15.85v5.07H19.1v-.81Z"/></g></svg>