<svg id="Capa_1" data-name="Capa 1" xmlns="http://www.w3.org/2000/svg" viewBox="0 0 35.72 36"><defs><style>.cls-1{fill:#00e7ff;}</style></defs><title>viaticos_prop</title><g id="TB4mfE"><path class="cls-1" d="M28.67,35H8.86c-2.69-.75-3.29-2.75-3-5.2-1.51-.22-1.84-.6-1.84-2,0-2.7,0-5.4,0-8.09a1.47,1.47,0,0,1,.72-1.47,6.49,6.49,0,0,1,1.1-.31V4.85a5.22,5.22,0,0,1,.08-1A3.8,3.8,0,0,1,8.86,1H23.23a6,6,0,0,0,.5.63q3.73,3.73,7.49,7.45a1.51,1.51,0,0,1,.49,1.18q0,10.46,0,20.91a4.49,4.49,0,0,1-.07.9A3.78,3.78,0,0,1,28.67,35ZM8.09,29.75c-.28,2.47.11,3.1,2.43,3.07,5.65-.07,11.29,0,16.94,0,1.65,0,2.05-.4,2-2q0-9.83-.08-19.65c0-.22,0-.43-.05-.68H25A2.46,2.46,0,0,1,22.3,7.7V3.22c-.29,0-.51,0-.73,0L9.85,3.2C8.47,3.21,8,3.68,8,5.09V17.26c0,.24,0,.48,0,.77H25.21c1.15,0,1.65.5,1.65,1.66,0,2.72,0,5.44,0,8.16,0,1.46-.42,1.89-1.89,1.89H8.09Zm5-2.46a27.1,27.1,0,0,0,3.6-.47c1.34-.36,1.9-1.54,1.83-3.27a2.45,2.45,0,0,0-2.08-2.43,17.64,17.64,0,0,0-3-.12.51.51,0,0,0-.34.38C13.1,23.26,13.11,25.14,13.11,27.29ZM9.19,25a14.05,14.05,0,0,0,1.4-.16,2,2,0,0,0,1.66-2A1.81,1.81,0,0,0,10.56,21a13,13,0,0,0-2.33,0c-.15,0-.39.35-.4.54,0,1.19,0,2.37,0,3.55v2H9.19ZM23,24.67V23.5h-2.1V22.11h2.25V21H19.51v6.08h1.4V24.67Z"/><path class="cls-1" d="M14.58,26.08v-4a2,2,0,0,1,2.08.54,2.58,2.58,0,0,1,.16,2.51A2.14,2.14,0,0,1,14.58,26.08Z"/><path class="cls-1" d="M9.26,24v-2.2a5.82,5.82,0,0,1,1.43.63.94.94,0,0,1,0,.93A6,6,0,0,1,9.26,24Z"/></g></svg>