<svg id="Capa_1" data-name="Capa 1" xmlns="http://www.w3.org/2000/svg" viewBox="0 0 35.72 36"><defs><style>.cls-1{fill:#9c9aa0;}</style></defs><title>viaticos_prop</title><g id="_4zKPhe.tif" data-name="4zKPhe.tif"><path class="cls-1" d="M2,.76H29.35V19.43H27.93V2.2H3.49V30.94H20.73v1.43H2Z"/><path class="cls-1" d="M32.24,22.31v2.1A3.29,3.29,0,0,1,31,27.05c-.4.33-.78.67-1.18,1l.47.41c.33.29.67.57,1,.87a3.11,3.11,0,0,1,1,1.91,3.87,3.87,0,0,1,0,.48v2.09H33a.71.71,0,0,1,.64,1.07.64.64,0,0,1-.53.36H21.55a1.37,1.37,0,0,1-.29,0,.69.69,0,0,1-.52-.8.66.66,0,0,1,.66-.61h.77v-.13c0-.6,0-1.2,0-1.8a3.29,3.29,0,0,1,1.35-2.8c.4-.32.77-.66,1.17-1-.27-.23-.53-.44-.8-.65a6.14,6.14,0,0,1-1-1,3.32,3.32,0,0,1-.68-2V22.32c-.23,0-.46,0-.68,0a1.16,1.16,0,0,1-.41-.09.7.7,0,0,1-.34-.76.66.66,0,0,1,.58-.57H32.88a.75.75,0,0,1,.69.32.81.81,0,0,1,0,.77.64.64,0,0,1-.62.35C32.73,22.32,32.49,22.31,32.24,22.31Zm-1.45,11.5a.35.35,0,0,1,0-.06c0-.73,0-1.45,0-2.18a1.61,1.61,0,0,0-.45-1.16c-.28-.28-.58-.54-.87-.8s-.87-.74-1.3-1.11a.28.28,0,0,1-.09-.1.73.73,0,0,1,.13-.86L30,26.08a2.07,2.07,0,0,0,.82-1.71c0-.64,0-1.28,0-1.92v-.13H23.62a.18.18,0,0,0,0,.06c0,.66,0,1.32,0,2a1.84,1.84,0,0,0,.51,1.35c.24.25.5.48.76.71l1.44,1.22.08.09a.73.73,0,0,1-.13.86l-1.11.92c-.36.31-.72.62-1.06.95a1.64,1.64,0,0,0-.49,1.22c0,.68,0,1.35,0,2v.12h1.44a1.9,1.9,0,0,1,.27-.93,6.21,6.21,0,0,1,1.88-1.94,7.42,7.42,0,0,1,1.39,1.23,3.42,3.42,0,0,1,.67,1.09,5.41,5.41,0,0,1,.12.55Z"/><path class="cls-1" d="M7.8,7.22H23.6V8.65H7.8Z"/><path class="cls-1" d="M12.83,18V16.58H23.6V18Z"/><path class="cls-1" d="M21.27,26.62H12.84V25.2h8c.06.24.12.49.2.73S21.17,26.39,21.27,26.62Z"/><path class="cls-1" d="M19.43,22.31H12.84V20.88h6.58A2.07,2.07,0,0,0,19.43,22.31Z"/><path class="cls-1" d="M10.66,20.88v1.43H7.8V20.88Z"/><path class="cls-1" d="M10.66,16.57V18H7.8V16.57Z"/><path class="cls-1" d="M10.66,25.2v1.42H7.8V25.2Z"/><path class="cls-1" d="M25.05,24.48h4.31a1.67,1.67,0,0,1-.11.59,2.17,2.17,0,0,1-.78.94,3.73,3.73,0,0,1-1.2.59.24.24,0,0,1-.12,0,3.61,3.61,0,0,1-1.66-1A1.66,1.66,0,0,1,25.05,24.48Z"/></g></svg>