<svg id="Capa_1" data-name="Capa 1" xmlns="http://www.w3.org/2000/svg" viewBox="0 0 35.72 36"><defs><style>.cls-1{fill:#9c9aa0;}</style></defs><title>viaticos_prop</title><g id="TB4mfE"><path class="cls-1" d="M28.82,35.25H8.73C6,34.49,5.4,32.46,5.68,30c-1.53-.23-1.86-.62-1.86-2.07,0-2.73,0-5.46,0-8.2a1.49,1.49,0,0,1,.74-1.48,5.58,5.58,0,0,1,1.11-.32v-.84q0-6.21,0-12.41a4.67,4.67,0,0,1,.08-1,3.82,3.82,0,0,1,3-2.93H23.3a7.79,7.79,0,0,0,.51.63q3.78,3.8,7.6,7.56a1.54,1.54,0,0,1,.49,1.19q0,10.6,0,21.21a4.65,4.65,0,0,1-.07.91A3.81,3.81,0,0,1,28.82,35.25ZM8,29.91c-.29,2.5.1,3.15,2.46,3.12,5.72-.07,11.45,0,17.17,0,1.68,0,2.08-.4,2.08-2.07q0-10-.08-19.93c0-.21,0-.43-.06-.68H25.11a2.49,2.49,0,0,1-2.74-2.76c0-1.5,0-3,0-4.55-.29,0-.52,0-.74,0-4,0-7.92,0-11.88,0-1.4,0-1.87.48-1.87,1.91V17.25c0,.24,0,.49,0,.78H25.31c1.17,0,1.67.51,1.68,1.68V28c0,1.48-.43,1.91-1.92,1.91H8ZM13,27.42a26.19,26.19,0,0,0,3.66-.48c1.35-.37,1.92-1.56,1.85-3.31a2.5,2.5,0,0,0-2.11-2.47,18.11,18.11,0,0,0-3-.12c-.12,0-.34.25-.34.38C13,23.33,13,25.24,13,27.42Zm-4-2.31c.57-.06,1-.08,1.42-.16a2,2,0,0,0,1.68-2.07A1.83,1.83,0,0,0,10.46,21a13.4,13.4,0,0,0-2.37,0c-.15,0-.39.36-.4.55,0,1.2,0,2.4,0,3.6v2h1.4Zm14-.35V23.58H21V22.17h2.28V21H19.54V27.2H21V24.76Z"/><path class="cls-1" d="M14.54,26.19V22.13a2.06,2.06,0,0,1,2.1.55,2.61,2.61,0,0,1,.16,2.55A2.13,2.13,0,0,1,14.54,26.19Z"/><path class="cls-1" d="M9.14,24.1V21.88a6,6,0,0,1,1.45.63,1,1,0,0,1,0,.94A5.8,5.8,0,0,1,9.14,24.1Z"/></g></svg>