<svg id="Capa_1" data-name="Capa 1" xmlns="http://www.w3.org/2000/svg" viewBox="0 0 35.72 36"><defs><style>.cls-1{fill:#ff0130;}</style></defs><title>TripleMatch_prop</title><g id="JiiANg"><path class="cls-1" d="M17.83,22.89c-3,3-5.91,5.93-8.83,8.86L6.61,34.14a3.46,3.46,0,1,1-4.86-4.91Q7,23.94,12.31,18.67c.2-.21.44-.38.91-.77a5,5,0,0,1-.87-.53Q7,12,1.67,6.69a3.45,3.45,0,1,1,4.72-5c1.8,1.72,3.54,3.5,5.3,5.27L18,13.3a3.76,3.76,0,0,1,.48-.81Q23.85,7.11,29.23,1.76A3.42,3.42,0,0,1,35,3a3.44,3.44,0,0,1-1,3.79L23.41,17.33a7.25,7.25,0,0,1-.68.53l-.11.33a3.9,3.9,0,0,1,.75.44Q28.73,24,34.05,29.31a3.43,3.43,0,0,1-.47,5.47,3.37,3.37,0,0,1-4.14-.35c-.9-.83-1.76-1.72-2.63-2.59L18.47,23.5Z"/></g></svg>