<svg id="Capa_1" data-name="Capa 1" xmlns="http://www.w3.org/2000/svg" viewBox="0 0 35.72 36"><defs><style>.cls-1{fill:#ff0130;}</style></defs><title>TripleMatch_prop</title><g id="rntahC.tif"><path class="cls-1" d="M33.8.67h.35a1.22,1.22,0,0,1,1,1.38c0,.31-.1.61-.15.92C34.86,4,34.68,5.1,34.5,6.17S34.15,8.3,34,9.36s-.36,2.13-.53,3.19l-.54,3.2c-.18,1.1-.36,2.2-.55,3.3s-.35,2.13-.53,3.2l-.51,3.07L30.8,28.4l-.54,3.21a1.91,1.91,0,0,1-.18.63,1.25,1.25,0,0,1-1.6.5c-2.64-1.09-5.28-2.16-7.93-3.24l-.77-.32-.06.07-3.21,3.91-1.42,1.73a1.1,1.1,0,0,1-.83.44,1.23,1.23,0,0,1-1.35-1.25V27.41a.25.25,0,0,1,0-.12l1.57-1.92,7.2-8.82L29.5,7l0-.06c-.57.48-1.14,1-1.7,1.45l-4.67,4L18.36,16.6l-4.66,4L9,24.69c-.06,0-.1.06-.16,0L3.5,22.52c-.77-.32-1.55-.63-2.31-1A1,1,0,0,1,.62,21a3.58,3.58,0,0,1-.09-.35V20.3c0-.08,0-.15,0-.23a1.2,1.2,0,0,1,.61-.68l8.28-4.78L32.92,1.08A2.94,2.94,0,0,1,33.8.67Z"/></g></svg>