<svg id="Capa_1" data-name="Capa 1" xmlns="http://www.w3.org/2000/svg" viewBox="0 0 35.72 36"><defs><style>.cls-1{fill:#ff0130;}</style></defs><title>TripleMatch_prop</title><g id="TB4mfE"><path class="cls-1" d="M28.87,35.33H8.69C6,34.57,5.34,32.53,5.63,30c-1.54-.23-1.88-.61-1.88-2.07,0-2.75,0-5.49,0-8.24a1.48,1.48,0,0,1,.74-1.49,5.58,5.58,0,0,1,1.11-.32v-.84q0-6.24,0-12.48a4.67,4.67,0,0,1,.08-1,3.84,3.84,0,0,1,3-2.94H23.33a5,5,0,0,0,.51.63q3.8,3.81,7.63,7.6a1.52,1.52,0,0,1,.5,1.2c0,7.1,0,14.2,0,21.3a4.59,4.59,0,0,1-.07.91A3.85,3.85,0,0,1,28.87,35.33ZM7.91,30c-.29,2.51.1,3.16,2.48,3.13,5.74-.07,11.49,0,17.24,0,1.69,0,2.1-.41,2.09-2.09q0-10-.08-20c0-.22,0-.44-.05-.69H25.14a2.49,2.49,0,0,1-2.75-2.77c0-1.51,0-3,0-4.57-.3,0-.53,0-.75,0L9.7,2.93c-1.4,0-1.87.48-1.87,1.91q0,6.21,0,12.4c0,.25,0,.5,0,.8H25.34c1.18,0,1.69.51,1.69,1.69v8.32C27,29.53,26.6,30,25.1,30H7.91ZM13,27.46A28,28,0,0,0,16.69,27c1.36-.37,1.93-1.57,1.86-3.33a2.49,2.49,0,0,0-2.12-2.48,16.29,16.29,0,0,0-3-.12c-.12,0-.34.24-.35.38C13,23.36,13,25.28,13,27.46ZM9,25.14c.57-.06,1-.07,1.43-.16a2,2,0,0,0,1.68-2.07,1.81,1.81,0,0,0-1.71-1.85,12.62,12.62,0,0,0-2.38,0c-.16,0-.4.36-.41.56,0,1.2,0,2.41,0,3.62v2H9Zm14.08-.34V23.61H21V22.19h2.29V21.05H19.54v6.2H21V24.8Z"/><path class="cls-1" d="M14.52,26.23V22.15a2.08,2.08,0,0,1,2.11.55,2.6,2.6,0,0,1,.17,2.56A2.17,2.17,0,0,1,14.52,26.23Z"/><path class="cls-1" d="M9.1,24.13V21.9a6.26,6.26,0,0,1,1.46.63,1,1,0,0,1,0,.95A5.89,5.89,0,0,1,9.1,24.13Z"/></g></svg>