<svg id="Capa_1" data-name="Capa 1" xmlns="http://www.w3.org/2000/svg" viewBox="0 0 35.72 36"><defs><style>.cls-1{fill:#ff0130;}</style></defs><title>TripleMatch_prop</title><g id="WRhOz6.tif"><path class="cls-1" d="M1.31,22.18v-16c0-.18,0-.37.07-.55A6.06,6.06,0,0,1,4.06,1.49a6,6,0,0,1,3.42-1H28.24c.23,0,.46,0,.68,0A5.9,5.9,0,0,1,32.43,2.1a6,6,0,0,1,2,4.57q0,7.51,0,15a6.92,6.92,0,0,1-.09,1.11,6.11,6.11,0,0,1-6.09,5.05h-9c-.08,0-.14,0-.18.1-.39,1-.8,2-1.2,3-.48,1.21-1,2.42-1.45,3.62a1.52,1.52,0,0,1-2.84-.12L11,28a.2.2,0,0,0-.23-.15H7.5a8.25,8.25,0,0,1-1.21-.11A5.91,5.91,0,0,1,3.23,26.2a6,6,0,0,1-1.82-3.34C1.37,22.64,1.34,22.41,1.31,22.18ZM15,29.82l.05-.11,1.54-3.85a1.53,1.53,0,0,1,1.54-1H28.45a3,3,0,0,0,2.33-1.24,3,3,0,0,0,.58-1.86V6.66a3,3,0,0,0-3.13-3.14H7.29a2.93,2.93,0,0,0-2,.82A3,3,0,0,0,4.35,6.6V21.75a3,3,0,0,0,1.22,2.47,3.06,3.06,0,0,0,1.92.61H12a1.51,1.51,0,0,1,1.44,1l1,2.62C14.62,28.87,14.81,29.33,15,29.82Z"/></g></svg>