<svg id="Capa_1" data-name="Capa 1" xmlns="http://www.w3.org/2000/svg" viewBox="0 0 35.72 36"><defs><style>.cls-1{fill:#ff0130;}</style></defs><title>TripleMatch_prop</title><g id="KcXyvF"><path class="cls-1" d="M.9,20.11H12.42L7.17,25c2.95,4.08,6.88,6.22,11.89,5.66,6.23-.7,9.89-4.45,11.41-10.47h4.18a12.54,12.54,0,0,1-.87,3.67,16.75,16.75,0,0,1-14.18,11c-.15,0-.29.07-.44.1H16.55a1.78,1.78,0,0,0-.33-.09,16.81,16.81,0,0,1-11.41-6c-.26-.31-.51-.64-.78-1L3,28.83.9,30.64Z"/><path class="cls-1" d="M34.82,15.89H24.27l4.5-4.36A12.45,12.45,0,0,0,16.71,5.36C10.46,6.09,6.78,9.8,5.25,15.85H1.07a12.62,12.62,0,0,1,.82-3.53Q5.73,2.57,16.12,1.14a3,3,0,0,0,.43-.1h2.61c.13,0,.25.08.38.1a16.43,16.43,0,0,1,10,4.56c.83.78,1.55,1.68,2.35,2.55l.33-.32,2.65-2.57Z"/></g></svg>