<svg id="Capa_1" data-name="Capa 1" xmlns="http://www.w3.org/2000/svg" viewBox="0 0 35.72 36"><defs><style>.cls-1{fill:#ff0130;}</style></defs><title>TripleMatch_prop</title><g id="_4zKPhe.tif" data-name="4zKPhe.tif"><path class="cls-1" d="M2,.68H29.41V19.44H28V2.12H3.42V31H20.74v1.44H2Z"/><path class="cls-1" d="M32.31,22.34v.13c0,.66,0,1.31,0,2A3.31,3.31,0,0,1,31,27.09c-.4.33-.78.68-1.18,1l.47.41c.33.29.67.57,1,.87a3.15,3.15,0,0,1,1,1.92,4,4,0,0,1,0,.49c0,.65,0,1.3,0,1.95v.15H33A.72.72,0,0,1,33.67,35a.65.65,0,0,1-.54.36H21.57a1.51,1.51,0,0,1-.3,0,.69.69,0,0,1-.52-.8.66.66,0,0,1,.67-.61h.74l0,0v-.12c0-.6,0-1.21,0-1.81a3.33,3.33,0,0,1,1.36-2.82c.4-.32.78-.66,1.17-1l-.8-.65a5.48,5.48,0,0,1-1-1,3.29,3.29,0,0,1-.69-2v-2.1c-.24,0-.46,0-.69,0a1.11,1.11,0,0,1-.4-.09.67.67,0,0,1-.34-.76.64.64,0,0,1,.57-.58H33a.7.7,0,0,1,.68.32.76.76,0,0,1,0,.77.64.64,0,0,1-.62.35ZM30.85,33.89s0,0,0-.07c0-.73,0-1.46,0-2.18a1.62,1.62,0,0,0-.45-1.17c-.28-.28-.58-.55-.88-.81l-1.31-1.11a.39.39,0,0,1-.08-.1.71.71,0,0,1,.13-.86L30,26.11a2.06,2.06,0,0,0,.82-1.71c0-.64,0-1.28,0-1.92v-.14H23.64v.06c0,.66,0,1.32,0,2a1.89,1.89,0,0,0,.52,1.36,10.44,10.44,0,0,0,.77.71l1.44,1.23a.34.34,0,0,1,.08.09.71.71,0,0,1-.13.86l-1.11.93c-.37.31-.73.61-1.07,1a1.61,1.61,0,0,0-.49,1.23v2.14h1.44a2,2,0,0,1,.27-.93,6.51,6.51,0,0,1,1.89-2,7.54,7.54,0,0,1,1.4,1.24,3,3,0,0,1,.67,1.1,4.43,4.43,0,0,1,.13.55Z"/><path class="cls-1" d="M7.76,7.17H23.63V8.6H7.76Z"/><path class="cls-1" d="M12.81,18V16.57H23.63V18Z"/><path class="cls-1" d="M21.29,26.66H12.81V25.24h8c.07.24.12.49.2.73S21.19,26.43,21.29,26.66Z"/><path class="cls-1" d="M19.43,22.33H12.81V20.9h6.62A2.07,2.07,0,0,0,19.43,22.33Z"/><path class="cls-1" d="M10.63,20.9v1.43H7.76V20.9Z"/><path class="cls-1" d="M10.63,16.57V18H7.76V16.57Z"/><path class="cls-1" d="M10.63,25.23v1.43H7.75V25.23Z"/><path class="cls-1" d="M25.08,24.51h4.33a1.44,1.44,0,0,1-.11.59,2.19,2.19,0,0,1-.78.95,4.07,4.07,0,0,1-1.2.59.17.17,0,0,1-.12,0,3.67,3.67,0,0,1-1.68-1A1.72,1.72,0,0,1,25.08,24.51Z"/></g></svg>