<svg id="Capa_1" data-name="Capa 1" xmlns="http://www.w3.org/2000/svg" viewBox="0 0 54.43 54.14"><defs><style>.cls-1{fill:#ff9e02;}.cls-2{fill:#fff;}</style></defs><title>UX_general_prop</title><rect class="cls-1" x="1.13" y="0.99" width="52.16" height="52.16" rx="17.38" ry="17.38"/><path class="cls-2" d="M12.76,35.23V18.91H24.83v3.14h-8v3H24.3v3.1H16.83V32h8.74v3.21Z"/><path class="cls-2" d="M40.7,27.56c-1.53,2.17-3.84,2.33-6.2,2.33H31.77v5.34H27.68V18.91h8.09A6.09,6.09,0,0,1,40,20.18a3.87,3.87,0,0,1,.74.81,6.32,6.32,0,0,1,.9,3.33A5.79,5.79,0,0,1,40.7,27.56Zm-3.52-4.74c-.65-.9-1.82-.9-2.8-.9H31.77v4.94h2.48a7.08,7.08,0,0,0,1.38-.07,2.17,2.17,0,0,0,2-2.49A2.31,2.31,0,0,0,37.18,22.82Z"/></svg>