<svg id="Capa_1" data-name="Capa 1" xmlns="http://www.w3.org/2000/svg" viewBox="0 0 29.75 29.99"><defs><style>.cls-1{fill:#9c9aa0;}</style></defs><title>UX_general_prop</title><g id="WRhOz6.tif"><path class="cls-1" d="M1.5,18.38V5.45c0-.15,0-.3.06-.44A4.87,4.87,0,0,1,3.72,1.65,4.83,4.83,0,0,1,6.48.83H23.27a5.07,5.07,0,0,1,.55,0,4.79,4.79,0,0,1,2.84,1.28,4.84,4.84,0,0,1,1.59,3.69q0,6.09,0,12.16a4.56,4.56,0,0,1-.08.9,4.82,4.82,0,0,1-2,3.15,4.87,4.87,0,0,1-2.95.94c-2.71,0-.19,0-2.9,0H16a.13.13,0,0,0-.14.08c-.32.82-.64,1.63-1,2.44L13.7,28.41a1.22,1.22,0,0,1-1.46.7,1.25,1.25,0,0,1-.84-.79c-.69-1.75-1.39-3.48-2.08-5.23A.18.18,0,0,0,9.13,23c-.87,0-1.75,0-2.63,0a6.35,6.35,0,0,1-1-.08,4.79,4.79,0,0,1-2.48-1.26,4.88,4.88,0,0,1-1.47-2.7C1.55,18.74,1.53,18.56,1.5,18.38Zm11.07,6.17a.19.19,0,0,0,0-.09c.42-1,.84-2.08,1.25-3.12a1.24,1.24,0,0,1,1.24-.83h8.35a2.37,2.37,0,0,0,1.88-1,2.43,2.43,0,0,0,.47-1.5V5.82a2.44,2.44,0,0,0-2.53-2.53H6.33A2.46,2.46,0,0,0,4.72,4,2.4,2.4,0,0,0,4,5.78V18a2.42,2.42,0,0,0,1,2,2.47,2.47,0,0,0,1.56.48h3.6a1.2,1.2,0,0,1,1.16.78c.29.71.57,1.41.85,2.12Z"/></g></svg>