<svg id="Capa_1" data-name="Capa 1" xmlns="http://www.w3.org/2000/svg" viewBox="0 0 35.72 36"><defs><style>.cls-1{fill:#52e3a4;}</style></defs><title>UX_general_prop</title><g id="mYRo6D.tif"><path class="cls-1" d="M3.24,11.36V8.71H4.58c0-.46,0-.9,0-1.35a1.07,1.07,0,0,1,.13-.53A1.3,1.3,0,0,1,6,6h5.22V5.4a4.57,4.57,0,0,1,.5-2.06A4.61,4.61,0,0,1,14.23,1,3.6,3.6,0,0,1,15.57.72h4.66a2.61,2.61,0,0,1,.83.12A4.61,4.61,0,0,1,23.7,2.74a4.7,4.7,0,0,1,.84,2.59c0,.23,0,.46,0,.71h5.23a1.33,1.33,0,0,1,1.37,1.37V8.7h1.21c.09,0,.13,0,.13.12,0,.81,0,1.62,0,2.43,0,0,0,.07,0,.11H29.82v.17q0,9.82,0,19.64a5,5,0,0,1-.09.94,4,4,0,0,1-3.21,3.1l-.43.07H9.64l-.44-.07a3.94,3.94,0,0,1-2.42-1.44,4.06,4.06,0,0,1-.89-2.62q0-9.81,0-19.63v-.16Zm5.32,0V31.28a1.12,1.12,0,0,0,0,.32,1.31,1.31,0,0,0,1.33,1H26a1.32,1.32,0,0,0,1.12-1.35V11.36H27c-2.38,0-4.77,0-7.15,0-1.52,0-3.05,0-4.57,0-2.2,0-4.4,0-6.61,0ZM21.82,6c0-.32,0-.63-.06-.94a1.94,1.94,0,0,0-2-1.67H16l-.34,0a1.91,1.91,0,0,0-1.6,1.19A3.07,3.07,0,0,0,13.92,6V6Z"/><path class="cls-1" d="M16.53,14h2.65V30H16.53Z"/><path class="cls-1" d="M13.86,30H11.23V14h2.63Z"/><path class="cls-1" d="M24.49,30H21.85V14h2.64Z"/></g></svg>