<svg id="Capa_1" data-name="Capa 1" xmlns="http://www.w3.org/2000/svg" viewBox="0 0 35.72 36"><defs><style>.cls-1{fill:#52e3a4;}</style></defs><title>UX_general_prop</title><g id="TB4mfE"><path class="cls-1" d="M28.68,35H8.85c-2.69-.75-3.28-2.76-3-5.2-1.51-.22-1.84-.61-1.84-2,0-2.7,0-5.39,0-8.09a1.46,1.46,0,0,1,.73-1.47,6.12,6.12,0,0,1,1.09-.31v-.83q0-6.12,0-12.25a4.49,4.49,0,0,1,.08-1A3.77,3.77,0,0,1,8.85,1H23.23a6,6,0,0,0,.5.63q3.73,3.73,7.5,7.46a1.5,1.5,0,0,1,.49,1.18c0,7,0,14,0,20.92a4.49,4.49,0,0,1-.07.9A3.78,3.78,0,0,1,28.68,35ZM8.09,29.75c-.29,2.47.1,3.11,2.43,3.08,5.64-.07,11.29,0,16.94,0,1.66,0,2.06-.4,2.05-2.05q0-9.82-.08-19.66c0-.22,0-.43-.05-.68H25a2.45,2.45,0,0,1-2.7-2.72c0-1.48,0-3,0-4.49-.3,0-.52,0-.74,0l-11.72,0C8.47,3.2,8,3.67,8,5.08V17.26c0,.24,0,.48.05.77H25.21c1.16,0,1.65.5,1.66,1.66v8.17c0,1.46-.43,1.88-1.89,1.88H8.09Zm5-2.45a27,27,0,0,0,3.61-.47c1.34-.37,1.9-1.54,1.83-3.27a2.46,2.46,0,0,0-2.08-2.44,17.64,17.64,0,0,0-3-.12c-.12,0-.34.25-.34.38C13.1,23.26,13.1,25.15,13.1,27.3ZM9.19,25c.55-.06,1-.08,1.4-.16a2,2,0,0,0,1.65-2A1.8,1.8,0,0,0,10.56,21a13.06,13.06,0,0,0-2.34,0c-.15,0-.39.35-.4.55,0,1.18,0,2.36,0,3.55v2H9.19ZM23,24.68V23.51h-2.1V22.12h2.26V21H19.51v6.08h1.41v-2.4Z"/><path class="cls-1" d="M14.58,26.08v-4a2,2,0,0,1,2.08.54,2.58,2.58,0,0,1,.16,2.51A2.12,2.12,0,0,1,14.58,26.08Z"/><path class="cls-1" d="M9.25,24V21.83a5.92,5.92,0,0,1,1.44.62,1,1,0,0,1,0,.93A5.73,5.73,0,0,1,9.25,24Z"/></g></svg>