<svg id="Capa_1" data-name="Capa 1" xmlns="http://www.w3.org/2000/svg" viewBox="0 0 54.43 54.14"><defs><style>.cls-1{fill:#52e3a4;}.cls-2{fill:#fff;}</style></defs><title>UX_general_prop</title><rect class="cls-1" x="1.22" y="1.08" width="51.98" height="51.98" rx="17.32" ry="17.32"/><path class="cls-2" d="M25.74,33.24a6.69,6.69,0,0,1-3.87.88H15.32V20h5.79c.38,0,.76,0,1.11,0,1.46.06,3,.24,4,1.51a3.27,3.27,0,0,1,.67,2.08A3,3,0,0,1,25,26.53a5.88,5.88,0,0,1-1.18.34,4.65,4.65,0,0,1,.56.1,3.29,3.29,0,0,1,2.67,1.76,3.33,3.33,0,0,1,.32,1.45A3.68,3.68,0,0,1,25.74,33.24ZM22.5,22.76a2.42,2.42,0,0,0-.8-.1h-3v2.93h2.66s.52,0,.79-.06c.8-.14,1.06-.49,1.18-.81a1.82,1.82,0,0,0,.12-.66A1.27,1.27,0,0,0,22.5,22.76Zm.36,5.53a3,3,0,0,0-1.14-.14h-3v3.41h2.46c1.25,0,1.87-.14,2.33-.62a1.53,1.53,0,0,0,.38-1.08A1.51,1.51,0,0,0,22.86,28.29Z"/><path class="cls-2" d="M35.45,22.8V34.12H31.9V22.8H28.23V20H39.11V22.8Z"/></svg>