<svg id="Capa_1" data-name="Capa 1" xmlns="http://www.w3.org/2000/svg" viewBox="0 0 29.75 29.99"><defs><style>.cls-1{fill:#9c9aa0;}</style></defs><title>UX_general_prop</title><g id="YXDOyr.tif"><path class="cls-1" d="M3.44,28.69l-.13-.05a2.49,2.49,0,0,1-2.12-2.47c0-.62,0-1.24,0-1.87q0-10.17,0-20.34a2.46,2.46,0,0,1,1.7-2.51,2.94,2.94,0,0,1,.88-.14H17.09c.07,0-1.43,1.13-2.6,2.18-.15.14-.92.83-1.12.83l-8,0h-1V26H25.4V24.57q0-4,0-8a.82.82,0,0,1,.27-.64,40.32,40.32,0,0,0,2.65-3.25c.08-.08.17-.14.26-.22V26.41a2.63,2.63,0,0,1-2.27,2.28Z"/><path class="cls-1" d="M28.57,6.3,27.12,7.72c-.08.08-.13.19-.23.32a14.56,14.56,0,0,0-5-5l1.66-1.65a.35.35,0,0,1,.21-.06,7.6,7.6,0,0,1,2.49.53,3.56,3.56,0,0,1,2.11,2.77c.11.46.16.93.24,1.4Z"/><path class="cls-1" d="M9.47,15.49l11-11a10.36,10.36,0,0,1,4.89,4.89l-11,11A14.42,14.42,0,0,0,9.47,15.49Z"/><path class="cls-1" d="M7.41,22.45c0-1.65,0-3.25,0-4.85,0-.22.31-.46.52-.64.06-.06.28,0,.41.1a10.41,10.41,0,0,1,4.51,4.56.32.32,0,0,1-.06.42,1.14,1.14,0,0,1-1,.42c-1.35,0-2.7,0-4.05,0Z"/></g></svg>