<svg id="Capa_1" data-name="Capa 1" xmlns="http://www.w3.org/2000/svg" viewBox="0 0 29.75 29.99"><defs><style>.cls-1{fill:#ff0130;}</style></defs><title>UX_general_prop</title><g id="mYRo6D.tif"><path class="cls-1" d="M2.69,9.46V7.25H3.81c0-.39,0-.76,0-1.13a1,1,0,0,1,.11-.45A1.11,1.11,0,0,1,5,5H9.31c0-.18,0-.36,0-.53a4,4,0,0,1,.4-1.72,4,4,0,0,1,2.14-2A2.86,2.86,0,0,1,13,.6h3.88a2.26,2.26,0,0,1,.69.1,3.88,3.88,0,0,1,2.21,1.57,4.08,4.08,0,0,1,.7,2.16V5h4.36A1.11,1.11,0,0,1,26,6.17V7.24h1c.07,0,.1,0,.1.1V9.46H24.85V9.6q0,8.19,0,16.37a3.53,3.53,0,0,1-.08.79,3.33,3.33,0,0,1-2.67,2.58l-.36.05H8l-.37-.05a3.24,3.24,0,0,1-2-1.2A3.32,3.32,0,0,1,4.9,26q0-8.19,0-16.36V9.46Zm4.44,0v16.6a1.18,1.18,0,0,0,0,.27,1.1,1.1,0,0,0,1.11.84H21.7A1.09,1.09,0,0,0,22.63,26V9.46h-.11c-2,0-4,0-6,0-1.27,0-2.54,0-3.8,0-1.84,0-3.68,0-5.51,0ZM18.18,5a6.53,6.53,0,0,0-.05-.78,1.62,1.62,0,0,0-1.64-1.4H13.06a1.57,1.57,0,0,0-1.33,1A2.65,2.65,0,0,0,11.59,5V5Z"/><path class="cls-1" d="M13.77,11.67H16V25H13.77Z"/><path class="cls-1" d="M11.55,25H9.35V11.68h2.2Z"/><path class="cls-1" d="M20.41,25H18.2V11.68h2.21Z"/></g></svg>