<svg id="Capa_1" data-name="Capa 1" xmlns="http://www.w3.org/2000/svg" viewBox="0 0 29.75 29.99"><defs><style>.cls-1{fill:#9c9aa0;}</style></defs><title>UX_general_prop</title><g id="TB4mfE"><path class="cls-1" d="M23.88,29.16H7.38c-2.23-.62-2.73-2.29-2.5-4.32-1.26-.19-1.53-.51-1.53-1.7,0-2.24,0-4.49,0-6.73A1.22,1.22,0,0,1,4,15.19a4.84,4.84,0,0,1,.91-.26v-.69c0-3.4,0-6.79,0-10.19a4.36,4.36,0,0,1,.06-.81A3.15,3.15,0,0,1,7.38.83h12c.14.17.27.37.42.52C21.84,3.42,23.91,5.5,26,7.56a1.24,1.24,0,0,1,.41,1q0,8.7,0,17.4a3.74,3.74,0,0,1-.06.75A3.13,3.13,0,0,1,23.88,29.16ZM6.75,24.77c-.24,2.06.08,2.59,2,2.56,4.7,0,9.4,0,14.1,0,1.38,0,1.71-.32,1.7-1.7q0-8.17-.07-16.36c0-.18,0-.36,0-.56H20.83a2,2,0,0,1-2.25-2.27c0-1.23,0-2.46,0-3.73l-.61,0-9.76,0c-1.15,0-1.53.4-1.53,1.56V14.38c0,.2,0,.4,0,.64H21c1,0,1.38.41,1.38,1.38,0,2.26,0,4.53,0,6.79,0,1.22-.35,1.57-1.57,1.57h-14Zm4.17-2a21.85,21.85,0,0,0,3-.39C15,22,15.5,21.06,15.44,19.62a2,2,0,0,0-1.73-2,14.74,14.74,0,0,0-2.49-.1c-.1,0-.28.21-.29.31C10.92,19.37,10.92,20.94,10.92,22.73Zm-3.26-1.9c.47,0,.82-.06,1.17-.13A1.65,1.65,0,0,0,10.21,19,1.5,1.5,0,0,0,8.8,17.49a10.48,10.48,0,0,0-1.94,0c-.13,0-.33.29-.33.45,0,1,0,2,0,3v1.67H7.66Zm11.51-.28v-1H17.43V18.42H19.3v-.93H16.25v5.06h1.17v-2Z"/><path class="cls-1" d="M12.15,21.72V18.39a1.7,1.7,0,0,1,1.73.45A2.14,2.14,0,0,1,14,20.93,1.77,1.77,0,0,1,12.15,21.72Z"/><path class="cls-1" d="M7.72,20V18.18a4.93,4.93,0,0,1,1.19.52.78.78,0,0,1,0,.77A4.4,4.4,0,0,1,7.72,20Z"/></g></svg>