<svg id="Capa_1" data-name="Capa 1" xmlns="http://www.w3.org/2000/svg" viewBox="0 0 35.72 36"><defs><style>.cls-1{fill:#52e3a4;}.cls-2{fill:#fff;}</style></defs><title>UX_general_prop</title><rect class="cls-1" x="1.08" y="1.22" width="33.55" height="33.55" rx="5.85" ry="5.85"/><g id="JBoxag.tif"><path class="cls-2" d="M17.87,7.54h7.72a3.69,3.69,0,0,1,1.57.3,1.84,1.84,0,0,1,1,2.53,3.82,3.82,0,0,1-.92,1.23l-6.06,5.65a.47.47,0,0,0-.17.38c0,1.88,0,3.76,0,5.63a1.13,1.13,0,0,1-.38.89l-4.16,3.94a1.52,1.52,0,0,1-.63.35.9.9,0,0,1-1.11-1c0-1,0-2,0-3q0-3.42,0-6.84a.56.56,0,0,0-.15-.35q-3-2.82-6-5.62a3.8,3.8,0,0,1-1-1.38,1.81,1.81,0,0,1,.87-2.35,3,3,0,0,1,1.46-.36h8Zm8.27,2.15a1.86,1.86,0,0,0-.26,0l-2.31,0H10.21c-.2,0-.39,0-.59,0l-.08.13a5,5,0,0,1,.44.32c2.09,2,4.17,4,6.26,5.94a1.35,1.35,0,0,1,.46,1.08c0,2.51,0,5,0,7.53V25l.23-.22,1.92-1.82a.48.48,0,0,0,.17-.4c0-1.81,0-3.62,0-5.42a1.34,1.34,0,0,1,.45-1c2.1-2,4.18-4,6.27-6C25.87,10,26,9.85,26.14,9.69Z"/></g></svg>