<svg id="Capa_1" data-name="Capa 1" xmlns="http://www.w3.org/2000/svg" viewBox="0 0 35.72 36"><defs><style>.cls-1{fill:#ff9e02;}.cls-2{fill:#fff;}</style></defs><title>UX_general_prop</title><rect class="cls-1" x="0.64" y="0.78" width="34.43" height="34.43" rx="6" ry="6"/><g id="JBoxag.tif"><path class="cls-2" d="M17.87,7.27h7.92a3.92,3.92,0,0,1,1.62.3,1.9,1.9,0,0,1,1,2.6,4,4,0,0,1-.94,1.26l-6.22,5.8a.48.48,0,0,0-.17.39V23.4a1.17,1.17,0,0,1-.38.91c-1.44,1.34-2.85,2.7-4.28,4.05a1.53,1.53,0,0,1-.65.35.91.91,0,0,1-1.13-1c0-1,0-2.06,0-3.09q0-3.51,0-7a.57.57,0,0,0-.16-.36Q11.4,14.35,8.3,11.47a3.68,3.68,0,0,1-1-1.41,1.87,1.87,0,0,1,.9-2.42,3.11,3.11,0,0,1,1.5-.36h8.2Zm8.49,2.2a2.2,2.2,0,0,0-.27,0l-2.37,0H10c-.2,0-.4,0-.6,0l-.09.14a3.72,3.72,0,0,1,.45.33L16.2,16a1.37,1.37,0,0,1,.47,1.11c0,2.57,0,5.15,0,7.72v.32l.24-.22,2-1.87a.5.5,0,0,0,.17-.41c0-1.86,0-3.71,0-5.57A1.35,1.35,0,0,1,19.5,16c2.15-2,4.3-4.08,6.44-6.12C26.08,9.78,26.2,9.64,26.36,9.47Z"/></g></svg>