<svg id="Capa_1" data-name="Capa 1" xmlns="http://www.w3.org/2000/svg" viewBox="0 0 35.72 36"><defs><style>.cls-1{fill:#52e3a4;}</style></defs><title>UX_general_prop</title><g id="AFaNtm"><path class="cls-1" d="M17.87,31c-4.18,0-8.36,0-12.55,0C2.7,31,1.27,29.59,1.27,27v-18a3.63,3.63,0,0,1,4-4Q17.84,5,30.43,5a3.66,3.66,0,0,1,4,4V27a3.65,3.65,0,0,1-4,4C26.23,31,22.05,31,17.87,31Zm0-11.6L3.69,9.63c0,.21-.06.29-.06.37q0,8.63,0,17.26c0,1,.46,1.43,1.62,1.43H30.44c1.26,0,1.64-.4,1.64-1.67q0-8.3,0-16.59c0-.23,0-.47,0-.81Zm0-2.84L31.12,7.39H4.59Z"/></g></svg>