<svg id="Capa_1" data-name="Capa 1" xmlns="http://www.w3.org/2000/svg" viewBox="0 0 54.43 54.14"><defs><style>.cls-1{fill:#00e7ff;}.cls-2{fill:#fff;}</style></defs><title>repo_prop</title><rect class="cls-1" x="1.02" y="0.87" width="52.39" height="52.39" rx="17.45" ry="17.45"/><path class="cls-2" d="M29.55,34.1l-2.81-5H24.55v5H21V20h6.33c.4,0,.8,0,1.2,0a4.63,4.63,0,0,1,4,2.19,5,5,0,0,1,.56,2.35A3.73,3.73,0,0,1,32,27.47a4.36,4.36,0,0,1-.65.52,9,9,0,0,1-1.14.5l3.25,5.61Zm-2-11.45h-3v3.82h2.91a2.88,2.88,0,0,0,.94-.14,1.76,1.76,0,0,0,1.17-1.81C29.55,22.69,28.14,22.65,27.52,22.65Z"/></svg>