<svg id="Capa_1" data-name="Capa 1" xmlns="http://www.w3.org/2000/svg" viewBox="0 0 79.09 78.8"><defs><style>.cls-1{fill:#00e7ff;}.cls-2{fill:#fff;}</style></defs><title>repo_prop</title><path class="cls-1" d="M39.54,1.34C9.94,1.34,1.48,9.8,1.48,39.4S10,77.46,39.54,77.46,77.61,69,77.61,39.4,69.13,1.34,39.54,1.34Z"/><path class="cls-2" d="M53,47a3.35,3.35,0,0,0-3.39-3.13c-.72,0-1.44,0-2.16,0a1.12,1.12,0,1,1,0-2.24c1.06,0,2.11,0,3.17,0a1.09,1.09,0,0,0,1.2-1.09,1.11,1.11,0,0,0-1.21-1.15h-1c0-.42,0-.77,0-1.12a1.11,1.11,0,0,0-1.14-1.11,1.09,1.09,0,0,0-1.08,1.12c0,.35,0,.7,0,1.07l-.54.1a3.35,3.35,0,0,0,.51,6.66c.69,0,1.38,0,2.07,0s1.3.44,1.31,1.1-.49,1.13-1.31,1.14H46.36a1.13,1.13,0,1,0,0,2.25h1c0,.42,0,.75,0,1.08a1.1,1.1,0,0,0,1.09,1.16,1.13,1.13,0,0,0,1.13-1.18c0-.33,0-.67,0-1l.41-.07A3.36,3.36,0,0,0,53,47Z"/><path class="cls-2" d="M39.51,27.08h8.85a1.14,1.14,0,0,0,1.14-.63,1.11,1.11,0,0,0-1.09-1.6H30.68a1.12,1.12,0,0,0-1.22,1,1.13,1.13,0,0,0,1.26,1.19Z"/><path class="cls-2" d="M45.13,30.45a1.13,1.13,0,0,0-1.27-1.13c-.67,0-1.34,0-2,0-2.19,0-4.39,0-6.58,0a1.18,1.18,0,0,0-1.3.9,1.15,1.15,0,0,0,1.24,1.35h8.65C44.64,31.56,45.13,31.13,45.13,30.45Z"/><path class="cls-2" d="M40.55,50.62h-8.7c-.78,0-1.28.44-1.27,1.12a1.15,1.15,0,0,0,1.3,1.11h8.65a1.14,1.14,0,0,0,1.16-.69A1.11,1.11,0,0,0,40.55,50.62Z"/><path class="cls-2" d="M31.75,43.89h6.59a1.12,1.12,0,0,0,1.19-1.11,1.09,1.09,0,0,0-1.16-1.13c-2.2,0-4.39,0-6.59,0a1.52,1.52,0,0,0-.79.26,1,1,0,0,0-.35,1.21A1.13,1.13,0,0,0,31.75,43.89Z"/><path class="cls-2" d="M31.78,39.4h2.69c.93,0,1.86,0,2.79,0a1.1,1.1,0,0,0,1.16-1.09,1.12,1.12,0,0,0-1.18-1.13c-1.83,0-3.65,0-5.48,0a1.12,1.12,0,1,0,0,2.23Z"/><path class="cls-2" d="M31.74,46.13a1.12,1.12,0,0,0-1.16,1.1,1.1,1.1,0,0,0,1.17,1.12c.72,0,1.44,0,2.16,0s1.51,0,2.26,0a1.09,1.09,0,0,0,1.13-1.11,1.12,1.12,0,0,0-1.15-1.11Q33.95,46.11,31.74,46.13Z"/><path class="cls-2" d="M27.19,43.89a1.14,1.14,0,0,0,1.15-1.12,1.12,1.12,0,1,0-1.15,1.12Z"/><path class="cls-2" d="M27.21,46.13a1.12,1.12,0,0,0-1.11,1.15,1.12,1.12,0,0,0,2.24,0A1.14,1.14,0,0,0,27.21,46.13Z"/><path class="cls-2" d="M27.21,39.4a1.12,1.12,0,1,0-1.11-1.1A1.12,1.12,0,0,0,27.21,39.4Z"/><path class="cls-2" d="M27.21,50.62a1.1,1.1,0,0,0-1.11,1.09,1.12,1.12,0,0,0,1.12,1.14,1.14,1.14,0,0,0,1.12-1.1A1.11,1.11,0,0,0,27.21,50.62Z"/><path class="cls-2" d="M57.47,59.87q0-21.82,0-43.63a1.43,1.43,0,0,0-.83-1.48h-.58c-.76.5-1.54,1-2.29,1.49a1.24,1.24,0,0,1-1.6,0,7.32,7.32,0,0,0-.8-.52,3.28,3.28,0,0,0-3.55,0c-.29.17-.56.37-.84.56a1.19,1.19,0,0,1-1.44,0c-.26-.18-.52-.36-.8-.53a3.23,3.23,0,0,0-3.71,0c-1.53,1-1.49,1-3,0a3.2,3.2,0,0,0-3.75,0c-1.49,1-1.5.94-2.92,0a3.21,3.21,0,0,0-3.83,0c-1.5,1-1.53.89-2.88,0-.52-.36-1.06-.71-1.59-1.06H22.4a1.5,1.5,0,0,0-.79,1.5c0,6.43,0,12.85,0,19.28V59.87h-4.3V64H61.77V59.87ZM23.87,18c.15.08.27.13.38.2a3.32,3.32,0,0,0,3.72,0q.38-.22.72-.48a1.25,1.25,0,0,1,1.56,0,8.65,8.65,0,0,0,1.81.94,2.77,2.77,0,0,0,2.68-.52,2,2,0,0,1,2.86,0,3,3,0,0,0,3.89,0,2,2,0,0,1,2.82,0,3,3,0,0,0,3.89,0,2,2,0,0,1,2.82,0A3.3,3.3,0,0,0,55.18,18V59.87H23.87Z"/></svg>