<svg id="Capa_1" data-name="Capa 1" xmlns="http://www.w3.org/2000/svg" viewBox="0 0 35.72 36"><defs><style>.cls-1{fill:#00e7ff;}</style></defs><title>repo_prop</title><g id="_65NK8y.tif" data-name="65NK8y.tif"><path class="cls-1" d="M.67,15.82l10.53-.11c1.3,0,2.59,0,4.32,0L8.55,9a11.88,11.88,0,0,1,7.84-4.06c7.24-.73,13.28,3.66,14.53,10.78a13,13,0,0,1-12.4,15.38c-5.84.09-9.93-2.58-12.57-7.72a2.12,2.12,0,0,0-1.38-.9,12.32,12.32,0,0,0-2.43,0,3.23,3.23,0,0,0-.53.17,13.06,13.06,0,0,0,2.3,5.07,17.47,17.47,0,0,0,13.89,7.5A17.39,17.39,0,0,0,35,18.85,17.9,17.9,0,0,0,26.09,3,16.62,16.62,0,0,0,7,4.87L5.63,6,.67.94Z"/></g></svg>