<svg id="Capa_1" data-name="Capa 1" xmlns="http://www.w3.org/2000/svg" viewBox="0 0 79.09 78.8"><defs><style>.cls-1{fill:#00e7ff;}.cls-2{fill:#fff;}</style></defs><title>repo_prop</title><path class="cls-1" d="M39.54,1.34C9.94,1.34,1.48,9.8,1.48,39.4S10,77.46,39.54,77.46,77.61,69,77.61,39.4,69.13,1.34,39.54,1.34Z"/><g id="b9pqxk.tif"><path class="cls-2" d="M51.36,30.74c-.52.14-1,.26-1.54.43a12.48,12.48,0,0,0-4.1,2.3.57.57,0,0,1-.69.14,11.69,11.69,0,0,1-2.18-1.26,4.42,4.42,0,0,0-3.4-1.08,21,21,0,0,0-2.37.29,2.23,2.23,0,0,0-1.7,2.06,1.82,1.82,0,0,0,1.09,2.13,10.66,10.66,0,0,0,4.28.93,40.91,40.91,0,0,1,4.4.64,6.72,6.72,0,0,1,3.43,2,2.72,2.72,0,0,1,.7,2.5,2,2,0,0,1-1.79,1.71,19.88,19.88,0,0,1-3.27.08,23.06,23.06,0,0,0-5.38.29,29.17,29.17,0,0,1-10.58-.32,9.32,9.32,0,0,1-2.52-1.18c-.61-.33-1.16-.76-1.74-1.13a9.05,9.05,0,0,0-4.37-1.6V26.85c.64-.05,1.31-.05,2-.14,2.87-.43,5.75-.86,8.61-1.34,2.3-.38,4.58-.94,6.9-1.23a11.63,11.63,0,0,1,7.43,1.55,41.78,41.78,0,0,1,6.66,4.79,1.59,1.59,0,0,0,.22.13Z"/><path class="cls-2" d="M12.83,33.46v-7c0-.91.34-1.25,1.26-1.25h3.12c.81,0,1.19.36,1.19,1.17q0,7.06,0,14.13a1,1,0,0,1-1.11,1.14c-1.11,0-2.22,0-3.33,0-.78,0-1.13-.39-1.13-1.17V33.46Z"/></g><path class="cls-2" d="M55,51.79h-.88V50a6.18,6.18,0,0,1-2.67-.79,3.89,3.89,0,0,1-1.53-3.56h2.45a4.56,4.56,0,0,0,.36,1.54,1.87,1.87,0,0,0,1.39.79V44.09l-.74-.22a4.7,4.7,0,0,1-2.45-1.42,3.45,3.45,0,0,1-.71-2.19,4,4,0,0,1,.28-1.53,3.54,3.54,0,0,1,2.21-2.08,6.21,6.21,0,0,1,1.41-.23V35.21H55v1.23a4.55,4.55,0,0,1,2.32.72,3.6,3.6,0,0,1,1.58,3.16H56.52a3.3,3.3,0,0,0-.27-1.18A1.38,1.38,0,0,0,55,38.43v3.46a11,11,0,0,1,2.89,1.32,3.2,3.2,0,0,1,1.23,2.69,3.61,3.61,0,0,1-1.68,3.32A5.39,5.39,0,0,1,55,50Zm-.88-13.35a1.61,1.61,0,0,0-1.17.43,1.51,1.51,0,0,0-.39,1.1,1.47,1.47,0,0,0,.58,1.21,3.35,3.35,0,0,0,1,.45Zm.88,9.5a2.22,2.22,0,0,0,1-.33,1.66,1.66,0,0,0,.57-1.44,1.57,1.57,0,0,0-.53-1.24A4.15,4.15,0,0,0,55,44.39Z"/><path class="cls-2" d="M54.39,54.76c-.39,0-.79,0-1.19-.06A11.88,11.88,0,0,1,42.89,46l1.51-.41a10.32,10.32,0,0,0,9,7.59,10.33,10.33,0,1,0-6.43-17.42L45.8,34.64a11.89,11.89,0,1,1,8.59,20.12Z"/></svg>