<svg id="Capa_1" data-name="Capa 1" xmlns="http://www.w3.org/2000/svg" viewBox="0 0 79.09 78.8"><defs><style>.cls-1{fill:#00e7ff;}.cls-2{fill:#fff;}</style></defs><title>repo_prop</title><path class="cls-1" d="M39.54.81C9.53.81,1,9.39,1,39.4S9.55,78,39.54,78,78.13,69.42,78.13,39.4,69.54.81,39.54.81Z"/><g id="J91v8Q"><path class="cls-2" d="M26.73,33.77v-2.3H52.44v2.3Z"/><path class="cls-2" d="M52.44,36.1v2.28H26.73V36.1Z"/><path class="cls-2" d="M52.45,27v2.13a1,1,0,0,1,0,.15H26.73V27Z"/><path class="cls-2" d="M38.22,40.63h1.49v1.74a7.79,7.79,0,0,1,2.48.82l-.76,1.17a4,4,0,0,0-3.2-.58,1.44,1.44,0,0,0-1.14.89,1,1,0,0,0,.33,1.17A6.14,6.14,0,0,0,39.34,47a8,8,0,0,1,2.1,1.18,2.6,2.6,0,0,1,.27,3.81,3.74,3.74,0,0,1-2,1.13c-.17,0-.19.12-.19.26,0,.5,0,1,0,1.51H38V53.17a5.83,5.83,0,0,1-2.86-1L35.82,51a9,9,0,0,0,.92.48,4.05,4.05,0,0,0,3.15.07,1.36,1.36,0,0,0,.5-2.3,3.71,3.71,0,0,0-1.06-.73c-.6-.32-1.23-.56-1.84-.86a4.84,4.84,0,0,1-1.55-1.19,2.25,2.25,0,0,1,0-2.76,3.26,3.26,0,0,1,1.84-1.22c.48-.13.48-.13.48-.63Z"/><path class="cls-2" d="M57.34,60.15c0-14.71.08-31,.08-45.73C56.23,16,55.08,17.49,53.91,19l-2.07-3.24c-.53,1.28-1.05,2.53-1.58,3.79L46,16.07,42.9,19.69,39.34,16,35.9,19.72l-4.06-4.16-3.53,4-6.1-4.3c0,14.45-.07,30.5-.07,44.94h-7.4l.08,4.24H64.35l-.08-4.24Zm-33.59-42,4.8,3.38,3.34-3.74,4,4.14,3.43-3.69L43,22l3.18-3.76,4.74,3.87,1.24-3,1.66,2.6L55.88,19c0,13.18-.08,28-.08,41.13H23.67C23.67,46.73,23.75,31.67,23.75,18.19Z"/></g></svg>