<svg id="Capa_1" data-name="Capa 1" xmlns="http://www.w3.org/2000/svg" viewBox="0 0 79.09 78.8"><defs><style>.cls-1{fill:#00e7ff;}.cls-2{fill:#fff;}</style></defs><title>repo_prop</title><path class="cls-1" d="M39.54,1.12C9.77,1.12,1.26,9.63,1.26,39.4S9.79,77.68,39.54,77.68,77.82,69.17,77.82,39.4,69.29,1.12,39.54,1.12Z"/><g id="xhBtKt.tif"><path class="cls-2" d="M22.31,63.84a4.61,4.61,0,0,0-.53-.15,4.22,4.22,0,0,1-3.48-3.88c0-.26,0-.52,0-.78,0-13.11,0-26.21,0-39.31A4.56,4.56,0,0,1,23,15c7.88.07,15.76,0,23.65,0a4.9,4.9,0,0,1,3.8,1.59c1.16,1.22,2.36,2.4,3.57,3.58a4.39,4.39,0,0,1,1.39,3.3c0,3.4,0,6.79,0,10.19v1c.31-.27.48-.41.63-.56,1.23-1.23,2.44-2.47,3.69-3.67A4.28,4.28,0,0,1,67,33.58a4.42,4.42,0,0,1-1.42,3c-3.23,3.22-6.44,6.45-9.68,9.66a1.67,1.67,0,0,0-.54,1.31c0,3.82,0,7.64,0,11.46,0,2.73-1.18,4.18-3.84,4.72a.54.54,0,0,0-.18.1ZM44,17.85c-.27,0-.43,0-.59,0H22.88c-1.22,0-1.76.57-1.76,1.81V59.15c0,1.28.49,1.75,1.78,1.75H50.75c1.37,0,1.82-.46,1.82-1.85V50.5c0-.22,0-.44,0-.68-.38.16-.67.32-1,.42-1.84.63-3.68,1.23-5.52,1.85a1.51,1.51,0,0,1-1.72-.27,1.53,1.53,0,0,1-.25-1.72c.63-1.84,1.21-3.69,1.86-5.52a2.81,2.81,0,0,1,.67-1.06c1.81-1.85,3.64-3.67,5.49-5.49a1.5,1.5,0,0,0,.5-1.18c0-3.22,0-6.45,0-9.68,0-.23,0-.46,0-.78H45.94C44.4,26.39,44,26,44,24.46ZM58.37,36l-6.72,6.73,1.72,1.75,6.85-6.62ZM52.75,23.52a6.16,6.16,0,0,0-.71-1.3q-1.89-2-3.87-3.87a6.19,6.19,0,0,0-1.3-.69v5.86Zm9.61,12.34c.52-.55,1.06-1.07,1.54-1.65a1.35,1.35,0,0,0-.09-1.81,1.32,1.32,0,0,0-1.8-.21,18.31,18.31,0,0,0-1.61,1.69Zm-13,9c-1.23.94-1.15,2.4-1.65,3.64,1.25-.53,2.75-.41,3.62-1.61Z"/><path class="cls-2" d="M35.42,29.27H45c1.18,0,1.78.51,1.78,1.46a1.32,1.32,0,0,1-1,1.34,3.39,3.39,0,0,1-.78.08H25.83c-1,0-1.66-.39-1.8-1.14a1.45,1.45,0,0,1,1.56-1.74c1.17,0,2.33,0,3.49,0Z"/><path class="cls-2" d="M32.57,46.46h6.9c1.06,0,1.66.53,1.64,1.43s-.61,1.39-1.62,1.39H25.61A1.43,1.43,0,0,1,24,48.22a1.37,1.37,0,0,1,1.41-1.75C27.83,46.45,30.2,46.46,32.57,46.46Z"/><path class="cls-2" d="M32.57,43.58c-2.3,0-4.6,0-6.9,0-1,0-1.66-.56-1.66-1.44a1.36,1.36,0,0,1,1.17-1.38,3.63,3.63,0,0,1,.57,0H39.34a3.63,3.63,0,0,1,.57,0,1.4,1.4,0,0,1,.33,2.68,2.75,2.75,0,0,1-.91.14C37.08,43.59,34.83,43.58,32.57,43.58Z"/><path class="cls-2" d="M32.57,35h7c.6,0,1.15.18,1.31.76a1.86,1.86,0,0,1-.08,1.38,1.7,1.7,0,0,1-1.23.66c-4.69,0-9.39,0-14.09,0A1.38,1.38,0,0,1,24,36.43,1.35,1.35,0,0,1,25.53,35Z"/><path class="cls-2" d="M41.14,58H37a1.38,1.38,0,0,1-1.58-1.35A1.42,1.42,0,0,1,37,55.2q4.14,0,8.26,0a1.39,1.39,0,0,1,1.57,1.45c0,.86-.58,1.37-1.55,1.37Z"/></g></svg>