<svg id="Capa_1" data-name="Capa 1" xmlns="http://www.w3.org/2000/svg" viewBox="0 0 79.09 78.8"><defs><style>.cls-1{fill:#00e7ff;}.cls-2{fill:#fff;}</style></defs><title>repo_prop</title><path class="cls-1" d="M39.47,1c-29.58,0-38,8.45-38,38s8.48,38,38,38,38-8.45,38-38S69,1,39.47,1Z"/><g id="_4AMqQr.tif" data-name="4AMqQr.tif"><path class="cls-2" d="M38.5,47.29c2.43,1.12,4.87,2.2,7.63,2,2-.15,3.95-.37,5.91-.69a6.64,6.64,0,0,0,3.45-1.85,7.24,7.24,0,0,1,4.31-2.11,3.2,3.2,0,0,1,2.11.5,1.45,1.45,0,0,1,.33,2.36l-.39.44a1.11,1.11,0,0,0,.07.13c.86.45,1,.76.59,1.67a3.33,3.33,0,0,1-.77,1.08,23.82,23.82,0,0,1-2.16,1.74c-1.46,1-3,2-4.43,3a9.4,9.4,0,0,1-4.36,1.38c-2.62.34-5.22.8-7.84,1.2-1,.14-1.9.23-2.86.33a7,7,0,0,1-3.71-.64l-9.79-4.55c-.95-.44-1.91-.86-2.84-1.33a11,11,0,0,0-4-1.08,1.13,1.13,0,0,1-1.15-1.25c0-3.38,0-6.77,0-10.15a1,1,0,0,1,.85-1.13,31.17,31.17,0,0,1,11.78-1.46A16.52,16.52,0,0,1,37.84,39a13,13,0,0,0,6,1.51,29.88,29.88,0,0,1,7.37,1.32,3.74,3.74,0,0,1,2.28,1.65A1.8,1.8,0,0,1,53.63,45c-.45,1.19-1.06,2.29-2.43,2.56a6.65,6.65,0,0,1-1.78,0c-1.61-.09-3.22-.2-4.83-.3-1.07-.07-2.13-.17-3.19-.19s-1.94,0-2.91.08Z"/></g><path class="cls-2" d="M49.13,42.67H48V40.38a7.85,7.85,0,0,1-3.38-1c-1.31-.88-2-2.38-1.93-4.51h3.1a5.75,5.75,0,0,0,.45,1.95,2.39,2.39,0,0,0,1.76,1V32.91l-.93-.27a5.91,5.91,0,0,1-3.1-1.8,4.35,4.35,0,0,1-.91-2.77,5,5,0,0,1,.36-1.94,4.43,4.43,0,0,1,1-1.51,4.32,4.32,0,0,1,1.82-1.12A8.16,8.16,0,0,1,48,23.21V21.68h1.11v1.55a5.71,5.71,0,0,1,2.93.92,4.53,4.53,0,0,1,2,4H51a4,4,0,0,0-.34-1.49,1.75,1.75,0,0,0-1.57-.9v4.38A14.59,14.59,0,0,1,52.8,31.8a4.06,4.06,0,0,1,1.54,3.4,4.55,4.55,0,0,1-2.12,4.21,6.85,6.85,0,0,1-3.09,1ZM48,25.77a2,2,0,0,0-1.48.54,1.9,1.9,0,0,0-.49,1.39,1.81,1.81,0,0,0,.73,1.53,4,4,0,0,0,1.24.58Zm1.11,12a2.92,2.92,0,0,0,1.31-.41,2.13,2.13,0,0,0,.72-1.83A2,2,0,0,0,50.49,34a5.07,5.07,0,0,0-1.36-.69Z"/><path class="cls-2" d="M63.37,28.47Q63.21,27.72,63,27a15,15,0,0,0-29,7.79c.11.48.23.94.38,1.4a21.06,21.06,0,0,1,2.38.74,13.07,13.07,0,1,1,19,5.68l1.07,1.66a15.08,15.08,0,0,0,6.55-15.8Z"/><path class="cls-2" d="M13.06,44.44V39.07c0-.7.27-1,1-1h2.4c.63,0,.92.28.93.9v10.9a.77.77,0,0,1-.86.87c-.86,0-1.71,0-2.57,0-.6,0-.87-.29-.87-.9V44.44Z"/></svg>