<svg id="Capa_1" data-name="Capa 1" xmlns="http://www.w3.org/2000/svg" viewBox="0 0 79.09 78.8"><defs><style>.cls-1{fill:#00e7ff;}.cls-2{fill:#fff;}</style></defs><title>repo_prop</title><path class="cls-1" d="M39.54,1.34C9.94,1.34,1.48,9.8,1.48,39.4S10,77.46,39.54,77.46,77.61,69,77.61,39.4,69.13,1.34,39.54,1.34Z"/><g id="_8QheUG" data-name="8QheUG"><path class="cls-2" d="M20.34,39.36V17.51c0-2.21.53-2.74,2.76-2.75H55.71c2.41,0,3,.66,3,3.07V61.06c0,2.28-.67,3-3,3H23c-2.12,0-2.68-.57-2.68-2.68ZM56.49,17H22.66V61.88H56.49Z"/><path class="cls-2" d="M26,19.93H53.12V43.81H26Zm10.32,5.35H51V22.14H36.31Zm0,11H51V33.09H36.3Zm.05-8.69v3.16H51V27.56Zm0,14.15H51V38.59H36.34ZM28.07,22.09v3.2H34v-3.2ZM34,27.6H28.09v3.14H34Zm-5.95,8.69H34V33.06H28.05Zm6,2.33h-6v3.12h6Z"/><path class="cls-2" d="M39.54,60a6.53,6.53,0,1,1,6.53-6.53A6.54,6.54,0,0,1,39.54,60Zm0-12A5.45,5.45,0,1,0,45,53.43,5.46,5.46,0,0,0,39.54,48Z"/><path class="cls-2" d="M39.77,57.3h-.41v-.84a2.85,2.85,0,0,1-1.25-.37,1.83,1.83,0,0,1-.71-1.66h1.14a2.07,2.07,0,0,0,.17.72.87.87,0,0,0,.65.37V53.7L39,53.6a2.21,2.21,0,0,1-1.14-.66,1.6,1.6,0,0,1-.33-1,1.85,1.85,0,0,1,.13-.72,1.58,1.58,0,0,1,.36-.56,1.53,1.53,0,0,1,.67-.41,3.42,3.42,0,0,1,.66-.11v-.56h.41v.57a2.12,2.12,0,0,1,1.08.34,1.66,1.66,0,0,1,.74,1.47H40.47a1.56,1.56,0,0,0-.12-.55.66.66,0,0,0-.58-.33v1.62a5.18,5.18,0,0,1,1.35.61,1.51,1.51,0,0,1,.57,1.26,1.69,1.69,0,0,1-.78,1.55,2.43,2.43,0,0,1-1.14.35Zm-.41-6.23a.71.71,0,0,0-.55.2.77.77,0,0,0,.09,1.08,1.83,1.83,0,0,0,.46.21Zm.41,4.43a1.13,1.13,0,0,0,.48-.15.77.77,0,0,0,.27-.67.73.73,0,0,0-.25-.58,2,2,0,0,0-.5-.26Z"/></g></svg>