<svg id="Capa_1" data-name="Capa 1" xmlns="http://www.w3.org/2000/svg" viewBox="0 0 79.09 78.8"><defs><style>.cls-1{fill:#00e7ff;}.cls-2{fill:#fff;}</style></defs><title>repo_prop</title><path class="cls-1" d="M39.54.73C9.46.73.87,9.32.87,39.4S9.49,78.07,39.54,78.07,78.22,69.48,78.22,39.4,69.6.73,39.54.73Z"/><g id="MbA3B6.tif"><path class="cls-2" d="M46.77,56.32h-.53c-.56,0-.7-.14-.72-.7s-.2-.73-.77-.84c-.89-.18-1.78-.38-2.65-.64-.54-.15-.63-.4-.5-1l.33-1.25c.16-.53.43-.67.94-.46a7.64,7.64,0,0,0,3.56.64,3.51,3.51,0,0,0,1.1-.29,1.25,1.25,0,0,0,.29-2.17,6.81,6.81,0,0,0-1.5-.82c-.85-.39-1.74-.67-2.55-1.1A3.88,3.88,0,0,1,41.57,45,3.54,3.54,0,0,1,43,41.24,9.59,9.59,0,0,1,45,40.32c.36-.15.56-.34.54-.74v-.52a.53.53,0,0,1,.59-.6H47.4c.43,0,.62.21.61.63v.33c0,.44.22.61.64.68a17.59,17.59,0,0,1,1.91.43c.52.15.63.39.51.91s-.2.81-.31,1.21-.43.65-.95.46a6.68,6.68,0,0,0-3.25-.43,2,2,0,0,0-.64.17,1.09,1.09,0,0,0-.23,2A16.52,16.52,0,0,0,48,46c.68.32,1.4.58,2.05.94a3.88,3.88,0,0,1,.73,6.32,4.48,4.48,0,0,1-2,1.19.78.78,0,0,0-.69.93c0,.12,0,.25,0,.38,0,.42-.2.62-.62.61Z"/><path class="cls-2" d="M28.93,30.16H27.54c-.35,0-.5-.15-.5-.49,0-1,0-1.89,0-2.84,0-.37.19-.5.54-.5.9,0,1.79,0,2.69,0,.46,0,.63-.19.62-.63,0-.87,0-1.73,0-2.6,0-.44.13-.64.6-.63.88,0,1.76,0,2.64,0,.45,0,.6.19.59.61,0,.83,0,1.67,0,2.5s0,.75.78.75H38c.42,0,.58.17.58.57,0,.9,0,1.8,0,2.69,0,.41-.16.58-.57.58-.89,0-1.77,0-2.65,0-.55,0-.63.08-.63.65v2.55c0,.56-.09.65-.63.65-.87,0-1.73,0-2.6,0-.47,0-.62-.19-.61-.64,0-.86,0-1.73,0-2.59,0-.44-.16-.65-.63-.63s-.89,0-1.34,0Z"/><path class="cls-2" d="M27.06,40.72V38.49h10.7v2.23Z"/><path class="cls-2" d="M37.78,43.68v2.23H27.08V43.68Z"/><path class="cls-2" d="M37.77,48.87V51.1H27.08V48.87Z"/><path class="cls-2" d="M27.06,56.28V54.07h10.7v2.21Z"/></g><path class="cls-2" d="M49.48,16.58,47.3,14.37H22.83c-2.26,0-2.8.54-2.8,2.79V61.72c0,2.13.58,2.71,2.72,2.71h33.3c2.32,0,3-.7,3-3V26.3Zm-1.92,7.14V18.31l9,8.92H52C47.35,27.23,47.56,23.72,47.56,23.72Zm9.2,38.52H22.39V16.58H45.1v8.78s-.05,4,5.37,4h6.29Z"/></svg>