<svg id="Capa_1" data-name="Capa 1" xmlns="http://www.w3.org/2000/svg" viewBox="0 0 35.72 36"><defs><style>.cls-1{fill:#00e7ff;}.cls-2{fill:#fff;}</style></defs><title>repo_prop</title><rect class="cls-1" x="0.63" y="0.77" width="34.46" height="34.46" rx="6.01" ry="6.01"/><g id="_7Lqjif" data-name="7Lqjif"><path class="cls-2" d="M10.5,13.75c0-1.26,0-2.51,0-3.76a2.13,2.13,0,0,1,2.41-2.42q6,0,12,0A2.14,2.14,0,0,1,27.31,10q0,8,0,16.07a2.15,2.15,0,0,1-2.39,2.4h-12a2.14,2.14,0,0,1-2.4-2.38c0-.89,0-1.79,0-2.68,0,0,0-.07,0-.11-1.65-.47-2-1-2-2.77v-4C8.4,14.78,8.79,14.25,10.5,13.75Zm14.66,1.6V9.68H12.63v4.13h.72c3,0,6.08,0,9.11,0A2.53,2.53,0,0,1,25.16,15.35Zm0,6.36a2.35,2.35,0,0,1-2.5,1.5h-10v3.08H25.19Zm-1.12-4.26A1.76,1.76,0,0,0,21.66,16a1.58,1.58,0,0,0-1.31,1.36,1.59,1.59,0,0,0,1.18,1.48,3.52,3.52,0,0,1,1,.39c.19.14.39.57.31.7a.87.87,0,0,1-.74.38c-.32-.1-.57-.43-.92-.73h-.95a1.59,1.59,0,0,0,1.4,1.58A2.29,2.29,0,0,0,24,20.32a1.3,1.3,0,0,0-.38-1.7,7.12,7.12,0,0,0-1-.51,2.61,2.61,0,0,1-.69-.34,1.1,1.1,0,0,1-.28-.65c0-.11.22-.33.34-.33s.68,0,.74.18C23,17.73,23.56,17.44,24.07,17.45Zm-9.32,3.63c-.39-.77-.73-1.47-1.11-2.13a.83.83,0,0,1,0-.93c.38-.65.72-1.33,1.12-2.08a4.89,4.89,0,0,1-.55,0,.86.86,0,0,0-1.12.73,7.16,7.16,0,0,1-.44,1l-.41-.89c-.44-1-.44-1-1.63-.76.34.66.65,1.32,1,1.94a.9.9,0,0,1,0,1c-.39.64-.71,1.33-1.1,2.08a5.87,5.87,0,0,1,.6,0,.82.82,0,0,0,1-.67,8.25,8.25,0,0,1,.47-1.08c.23.52.41,1,.63,1.37a.72.72,0,0,0,.39.36A7.34,7.34,0,0,0,14.75,21.08ZM17,20.24V16H15.86v5.06H19.1v-.81Z"/></g></svg>