<svg id="Capa_1" data-name="Capa 1" xmlns="http://www.w3.org/2000/svg" viewBox="0 0 35.72 36"><defs><style>.cls-1{fill:#00e7ff;}.cls-2{fill:#fff;}</style></defs><title>repo_prop</title><rect class="cls-1" x="0.5" y="0.64" width="34.71" height="34.71" rx="6.05" ry="6.05"/><g id="FFnIyD"><path class="cls-2" d="M8.58,28.82c-1-.4-1.17-.72-1.17-1.79V21h2.9V25.9H25.39V21h2.92v6a1.53,1.53,0,0,1-1.17,1.79Z"/><path class="cls-2" d="M19.73,7.18a2,2,0,0,1,.2.6c0,2.11,0,4.23,0,6.34v.59c.69,0,1.34,0,2,0a3.1,3.1,0,0,1,.58.15,2.87,2.87,0,0,1-.25.53q-1.86,2.43-3.73,4.83c-.47.6-.65.59-1.14,0l-4-4.81a3.59,3.59,0,0,1-.29-.52h2.74v-.57c0-2.21,0-4.42,0-6.63a1.38,1.38,0,0,1,.22-.52Z"/></g></svg>