<svg id="Capa_1" data-name="Capa 1" xmlns="http://www.w3.org/2000/svg" viewBox="0 0 35.72 36"><defs><style>.cls-1{fill:#00e7ff;}.cls-2{fill:#fff;}</style></defs><title>repo_prop</title><rect class="cls-1" x="0.38" y="0.52" width="34.96" height="34.96" rx="6.1" ry="6.1"/><g id="JBoxag.tif"><path class="cls-2" d="M17.87,7.1h8a3.91,3.91,0,0,1,1.65.31,1.93,1.93,0,0,1,1,2.64,3.89,3.89,0,0,1-1,1.28L21.3,17.22a.48.48,0,0,0-.17.39v5.88a1.16,1.16,0,0,1-.39.92c-1.45,1.36-2.89,2.74-4.34,4.11a1.41,1.41,0,0,1-.66.35.92.92,0,0,1-1.15-1c0-1,0-2.09,0-3.14q0-3.55,0-7.13a.57.57,0,0,0-.16-.36L8.15,11.37A3.91,3.91,0,0,1,7.1,9.94,1.92,1.92,0,0,1,8,7.48a3.34,3.34,0,0,1,1.52-.37h8.33Zm8.62,2.24a2.06,2.06,0,0,0-.28,0l-2.4,0H9.89c-.21,0-.41,0-.62,0l-.08.14a4.84,4.84,0,0,1,.46.33L16.17,16a1.41,1.41,0,0,1,.49,1.12c0,2.62,0,5.23,0,7.85v.32l.24-.22,2-1.9a.53.53,0,0,0,.18-.42c0-1.88,0-3.77,0-5.65A1.36,1.36,0,0,1,19.53,16l6.54-6.21Z"/></g></svg>