<svg id="Capa_1" data-name="Capa 1" xmlns="http://www.w3.org/2000/svg" viewBox="0 0 49.15 48.93"><defs><style>.cls-1{fill:#00e7ff;}.cls-2{fill:#fff;}</style></defs><title>Clinica_prop</title><rect class="cls-1" x="1.11" y="1" width="46.93" height="46.93" rx="8.18" ry="8.18"/><path class="cls-2" d="M17.67,20a6.13,6.13,0,0,0,.45.78l5.81,7c.63.76,1,.77,1.58,0q2.79-3.6,5.57-7.21a5.7,5.7,0,0,0,.38-.78H27.57v-.91q0-4.62,0-9.26c0-.45-.08-.77-.63-.77H22.29c-.44,0-.65.18-.64.68,0,3.21,0,6.41,0,9.61V20Z"/><path class="cls-2" d="M11.13,40.13c-1.4-.6-1.69-1-1.69-2.58V28.82h4.19V35.9H35.47V28.82h4.22v2.46c0,2.09,0,4.18,0,6.26A2.35,2.35,0,0,1,38,40.13Z"/><path class="cls-2" d="M17.67,20h4v-.86c0-3.2,0-6.4,0-9.61,0-.5.2-.68.64-.68H27c.55,0,.63.32.63.77q0,4.64,0,9.26v.91h3.89a5.7,5.7,0,0,1-.38.78q-2.77,3.61-5.57,7.21c-.62.79-1,.78-1.58,0l-5.81-7A6.13,6.13,0,0,1,17.67,20Z"/></svg>