<svg id="Capa_1" data-name="Capa 1" xmlns="http://www.w3.org/2000/svg" viewBox="0 0 49.15 48.93"><defs><style>.cls-1{fill:#00e7ff;}.cls-2{fill:#fff;}</style></defs><title>Clinica_prop</title><rect class="cls-1" x="1.11" y="1" width="46.93" height="46.93" rx="8.18" ry="8.18"/><path class="cls-2" d="M37.31,17.67a4.34,4.34,0,0,0-4.24,7.13l-3.94,6.75a3.89,3.89,0,0,0-.85-.09l-4.4-14.73a4.34,4.34,0,1,0-6.77-3.59,4.29,4.29,0,0,0,.95,2.71L14,22.29a4.32,4.32,0,1,0,2.22,1.4l4-6.39a3.88,3.88,0,0,0,1.14.17l4.4,14.73a4.34,4.34,0,1,0,5.62.66l3.93-6.74a4.34,4.34,0,0,0,2-8.45ZM12.87,29.06a2.58,2.58,0,1,1,2.57-2.58A2.57,2.57,0,0,1,12.87,29.06Zm8.58-13.34A2.58,2.58,0,1,1,24,13.14,2.58,2.58,0,0,1,21.45,15.72Zm6.68,22.87A2.58,2.58,0,1,1,30.7,36,2.57,2.57,0,0,1,28.13,38.59Zm8.16-14.12a2.58,2.58,0,1,1,2.57-2.58A2.58,2.58,0,0,1,36.29,24.47Z"/></svg>