<svg id="Capa_1" data-name="Capa 1" xmlns="http://www.w3.org/2000/svg" viewBox="0 0 35.68 35.52"><defs><style>.cls-1{fill:#00e7ff;}</style></defs><title>Clinica_prop</title><g id="m36KBw"><path class="cls-1" d="M18.23.47c.33.27.69.51,1,.81L31.78,13.83c1,1,1,1.64,0,2.66l-3.31,3.32c-1,1-1.66,1-2.67,0l-7.33-7.34a7.29,7.29,0,0,1-.53-.71l-7.62,7.62c-.25.25-.49.52-.76.76a1.38,1.38,0,0,1-2,0c-1.34-1.3-2.67-2.62-4-4-.66-.68-.58-1.42.16-2.16l6-6C12,5.76,14.2,3.54,16.42,1.34c.32-.32.69-.58,1-.87Z"/><path class="cls-1" d="M8.24,35.06c-.56-.48-1.15-.93-1.68-1.43-1-.93-1.89-1.88-2.83-2.83a1.39,1.39,0,0,1,0-2.26l13-13a1.43,1.43,0,0,1,2.27,0q6.51,6.5,13,13a1.39,1.39,0,0,1,0,2.26c-1.21,1.22-2.42,2.44-3.65,3.64a7,7,0,0,1-.86.62h-.61a12.49,12.49,0,0,1-1.08-.84c-.94-.9-1.85-1.84-2.78-2.76l-5.22-5.24a4.86,4.86,0,0,1-.49.67q-3.66,3.67-7.34,7.33a11.13,11.13,0,0,1-1.08.84Z"/></g></svg>