<svg id="Capa_1" data-name="Capa 1" xmlns="http://www.w3.org/2000/svg" viewBox="0 0 35.68 35.52"><defs><style>.cls-1{fill:#00e7ff;}</style></defs><title>Clinica_prop</title><g id="WRhOz6.tif"><path class="cls-1" d="M1.51,21.89V6.1c0-.18,0-.36.07-.53a5.92,5.92,0,0,1,2.64-4.1,5.87,5.87,0,0,1,3.37-1h20.5l.68,0a5.82,5.82,0,0,1,3.46,1.57,5.92,5.92,0,0,1,2,4.51q0,7.41,0,14.84a6.71,6.71,0,0,1-.09,1.1,5.91,5.91,0,0,1-2.42,3.85,6,6,0,0,1-3.59,1.14c-3.31,0-.24,0-3.55,0H19.19c-.08,0-.13,0-.17.09l-1.18,3c-.48,1.19-.95,2.39-1.44,3.58a1.48,1.48,0,0,1-1.78.85,1.52,1.52,0,0,1-1-1l-2.55-6.38a.2.2,0,0,0-.22-.15c-1.07,0-2.14,0-3.21,0a6.94,6.94,0,0,1-1.2-.1,5.81,5.81,0,0,1-3-1.54,5.91,5.91,0,0,1-1.8-3.3C1.56,22.34,1.54,22.11,1.51,21.89ZM15,29.43l.05-.11c.51-1.27,1-2.54,1.52-3.8a1.5,1.5,0,0,1,1.52-1H28.3a3,3,0,0,0,2.3-1.23,3,3,0,0,0,.57-1.83V6.56a3,3,0,0,0-3.09-3.09H7.41a3,3,0,0,0-2.9,3v15a2.92,2.92,0,0,0,1.2,2.43,3,3,0,0,0,1.9.6H12a1.49,1.49,0,0,1,1.42.95c.35.86.69,1.72,1,2.59Z"/></g></svg>