<svg id="Capa_1" data-name="Capa 1" xmlns="http://www.w3.org/2000/svg" viewBox="0 0 49.15 48.93"><defs><style>.cls-1{fill:#00e7ff;}.cls-2{fill:#fff;}</style></defs><title>Clinica_prop</title><rect class="cls-1" x="0.85" y="0.74" width="47.46" height="47.46" rx="8.27" ry="8.27"/><g id="zBGfCz.tif"><path class="cls-2" d="M14.05,33.23l-2.5,2.49c-.23.23-.48.51-.85.36s-.34-.53-.34-.86c0-2.63,0-5.27,0-7.9,0-.73.27-1,1-1l8,0a1.47,1.47,0,0,1,.42.06.45.45,0,0,1,.26.69,1.75,1.75,0,0,1-.33.44l-2.38,2.36a8.86,8.86,0,0,0,1.89,1.88A9.1,9.1,0,0,0,33,28a2.43,2.43,0,0,1,1.53-1.53,2.22,2.22,0,0,1,2.39.63,2.18,2.18,0,0,1,.47,2.43A13.4,13.4,0,0,1,30,37.09a13.68,13.68,0,0,1-15.83-3.71A.83.83,0,0,1,14.05,33.23Z"/><path class="cls-2" d="M35.13,15.64l.23-.21,2.22-2.23a2.18,2.18,0,0,1,.28-.25c.44-.33.88-.15.9.41,0,.78,0,1.56,0,2.34,0,2,0,3.93,0,5.89,0,.71-.29,1-1,1l-7.81,0c-.34,0-.75.07-.91-.34s.17-.66.42-.91c.76-.77,1.53-1.52,2.33-2.32-.26-.3-.49-.6-.76-.86a8.66,8.66,0,0,0-6.61-2.73A8.74,8.74,0,0,0,16.19,21a2.37,2.37,0,0,1-3.72,1,2.32,2.32,0,0,1-.65-2.68,13.73,13.73,0,0,1,3.47-5,13.12,13.12,0,0,1,7.44-3.46A13.49,13.49,0,0,1,35,15.45Z"/></g></svg>