<svg id="Capa_1" data-name="Capa 1" xmlns="http://www.w3.org/2000/svg" viewBox="0 0 49.15 48.93"><defs><style>.cls-1{fill:#00e7ff;}.cls-2{fill:#fff;}</style></defs><title>Clinica_prop</title><rect class="cls-1" x="1.12" y="1.01" width="46.91" height="46.91" rx="8.18" ry="8.18"/><g id="JBoxag.tif"><path class="cls-2" d="M24.59,9.85H35.38a5.26,5.26,0,0,1,2.21.41A2.59,2.59,0,0,1,39,13.8a5.29,5.29,0,0,1-1.29,1.71l-8.47,7.9a.68.68,0,0,0-.23.53c0,2.63,0,5.26,0,7.89a1.57,1.57,0,0,1-.53,1.23c-2,1.83-3.87,3.69-5.83,5.51a1.79,1.79,0,0,1-.87.48,1.25,1.25,0,0,1-1.55-1.35c0-1.41,0-2.81,0-4.22q0-4.77,0-9.56a.79.79,0,0,0-.22-.49l-8.41-7.86a5.13,5.13,0,0,1-1.4-1.92,2.56,2.56,0,0,1,1.22-3.3,4.29,4.29,0,0,1,2-.49l7.3,0h3.88Zm11.57,3a2.8,2.8,0,0,0-.38-.06c-1.07,0-2.14,0-3.22,0H13.88c-.27,0-.55,0-.82.06L13,13a6.76,6.76,0,0,1,.61.44l8.75,8.3A1.92,1.92,0,0,1,23,23.26c0,3.51,0,7,0,10.53v.43l.32-.3L26,31.37a.68.68,0,0,0,.24-.56c0-2.53,0-5,0-7.58a1.87,1.87,0,0,1,.62-1.45l8.78-8.33Z"/></g></svg>