<svg id="Capa_1" data-name="Capa 1" xmlns="http://www.w3.org/2000/svg" viewBox="0 0 35.68 35.52"><defs><style>.cls-1{fill:#00e7ff;}</style></defs><title>Clinica_prop</title><g id="TB4mfE"><path class="cls-1" d="M28.73,34.9h-20c-2.7-.75-3.3-2.77-3-5.23-1.53-.23-1.86-.61-1.86-2.05,0-2.72,0-5.43,0-8.15A1.49,1.49,0,0,1,4.62,18a5.58,5.58,0,0,1,1.11-.32v-.83c0-4.11,0-8.22,0-12.33a4.58,4.58,0,0,1,.08-1,3.81,3.81,0,0,1,3-2.92H23.25a6,6,0,0,0,.5.63Q27.52,5,31.3,8.76A1.49,1.49,0,0,1,31.79,10q0,10.53,0,21.06a4.65,4.65,0,0,1-.07.91A3.79,3.79,0,0,1,28.73,34.9ZM8,29.59c-.28,2.49.11,3.13,2.45,3.1,5.69-.07,11.37,0,17.06,0,1.67,0,2.07-.4,2.06-2.06q0-9.9-.08-19.8c0-.21,0-.43,0-.68H25a2.47,2.47,0,0,1-2.72-2.74c0-1.49,0-3,0-4.52-.3,0-.52,0-.74,0-3.93,0-7.87,0-11.8,0-1.39,0-1.86.48-1.86,1.89V17c0,.25,0,.49,0,.79H9c5.43,0,10.86,0,16.29,0,1.17,0,1.67.5,1.67,1.67v8.22c0,1.47-.43,1.9-1.9,1.9H8Zm5.06-2.47a27.58,27.58,0,0,0,3.63-.47c1.34-.37,1.9-1.55,1.83-3.3a2.44,2.44,0,0,0-2.09-2.44,16,16,0,0,0-3-.12c-.12,0-.34.24-.34.37C13.05,23.06,13.06,25,13.06,27.12ZM9.12,24.83c.55-.07,1-.08,1.4-.16a2,2,0,0,0,1.67-2.06,1.82,1.82,0,0,0-1.7-1.83,13.17,13.17,0,0,0-2.35,0c-.15,0-.39.36-.4.55,0,1.19,0,2.38,0,3.58v2h1.4ZM23,24.48V23.31H20.93V21.9h2.26V20.78H19.51V26.9h1.41V24.48Z"/><path class="cls-1" d="M14.54,25.9v-4a2.06,2.06,0,0,1,2.09.54,2.57,2.57,0,0,1,.16,2.53A2.15,2.15,0,0,1,14.54,25.9Z"/><path class="cls-1" d="M9.18,23.82V21.61a5.91,5.91,0,0,1,1.44.63,1,1,0,0,1,0,.94A5.73,5.73,0,0,1,9.18,23.82Z"/></g></svg>