<svg id="Capa_1" data-name="Capa 1" xmlns="http://www.w3.org/2000/svg" viewBox="0 0 54.43 54.14"><defs><style>.cls-1{fill:#00e7ff;}.cls-2{fill:#fff;}</style></defs><title>Clinica_prop</title><rect class="cls-1" x="1.36" y="1.22" width="51.71" height="51.71" rx="17.14" ry="17.14"/><path class="cls-2" d="M26.49,31.86A6.46,6.46,0,0,1,21.71,34,6.79,6.79,0,0,1,19,33.45c-3.45-1.55-3.61-5.35-3.61-6.39A7.31,7.31,0,0,1,17,22.39a5.93,5.93,0,0,1,4.74-2.26,6.12,6.12,0,0,1,4.62,2,8.41,8.41,0,0,1,.91,1.35L24.71,24.8a5.1,5.1,0,0,0-.43-.72,2.93,2.93,0,0,0-2.37-1.26,2.85,2.85,0,0,0-2,.78A4.54,4.54,0,0,0,18.69,27a7.05,7.05,0,0,0,0,.89,3.68,3.68,0,0,0,1.73,3,2.77,2.77,0,0,0,1.44.37,3.19,3.19,0,0,0,2.84-1.93l2.59,1.32C27,31.25,26.67,31.64,26.49,31.86Z"/><path class="cls-2" d="M32.22,23V25.8h6.24v2.52H32.22v5.3H29V20.54H39V23Z"/></svg>