<svg id="Capa_1" data-name="Capa 1" xmlns="http://www.w3.org/2000/svg" viewBox="0 0 54.43 54.14"><defs><style>.cls-1{fill:#00e7ff;}.cls-2{fill:#fff;}</style></defs><title>IMSS_propafiliatorios</title><rect class="cls-1" x="1.14" y="1" width="52.14" height="52.14" rx="17.37" ry="17.37"/><path class="cls-2" d="M6.21,33V21.16h3V33Z"/><path class="cls-2" d="M21.72,33,22,23.47,19.32,33H16.75l-2.62-9.53L14.37,33H11.48V21.16h4.33L18,29.45l2.2-8.29h4.33V33Z"/><path class="cls-2" d="M36.2,31a4.77,4.77,0,0,1-3.73,2.18,9.26,9.26,0,0,1-1.19.08,6.67,6.67,0,0,1-4.46-1.43,6.47,6.47,0,0,1-.94-1l2.25-1.41a5.31,5.31,0,0,0,.52.5,4.75,4.75,0,0,0,2.9,1,3.18,3.18,0,0,0,.92-.12c.09,0,1.26-.35,1.26-1.26,0-1.09-1.58-1.12-2.63-1.27a16,16,0,0,1-1.68-.3,4,4,0,0,1-2.23-1.25,2.5,2.5,0,0,1-.51-.87,3.7,3.7,0,0,1-.15-1A7.13,7.13,0,0,1,26.6,24a3.24,3.24,0,0,1,1-1.9,5.26,5.26,0,0,1,3.69-1.24,6.85,6.85,0,0,1,3.92,1.18,10.33,10.33,0,0,1,1.3,1.05l-2.18,1.56a4.55,4.55,0,0,0-2-1.29,4.94,4.94,0,0,0-1.11-.17c-1.21,0-1.76.71-1.76,1.26a.86.86,0,0,0,.25.62c.4.44,1.05.42,2.16.59q1,.15,2,.39a3.31,3.31,0,0,1,2.55,1.82,3.45,3.45,0,0,1,.24,1.28A3.9,3.9,0,0,1,36.2,31Z"/><path class="cls-2" d="M47.74,31A4.74,4.74,0,0,1,44,33.19a9.42,9.42,0,0,1-1.2.08,6.67,6.67,0,0,1-4.46-1.43,6.47,6.47,0,0,1-.94-1l2.25-1.41a5.31,5.31,0,0,0,.52.5,4.75,4.75,0,0,0,2.9,1,3.24,3.24,0,0,0,.93-.12c.08,0,1.25-.35,1.25-1.26,0-1.09-1.57-1.12-2.63-1.27A16.45,16.45,0,0,1,41,28a4,4,0,0,1-2.23-1.25,2.52,2.52,0,0,1-.5-.87,3.6,3.6,0,0,1-.16-1,7.13,7.13,0,0,1,.07-.82,3.26,3.26,0,0,1,1-1.9,5.22,5.22,0,0,1,3.69-1.24,6.83,6.83,0,0,1,3.91,1.18,11,11,0,0,1,1.31,1.05l-2.19,1.56a4.5,4.5,0,0,0-2-1.29,4.84,4.84,0,0,0-1.11-.17c-1.21,0-1.76.71-1.76,1.26a.9.9,0,0,0,.25.62c.4.44,1.06.42,2.16.59.68.1,1.33.23,2,.39A3.34,3.34,0,0,1,48,27.88a3.73,3.73,0,0,1,.23,1.28A3.78,3.78,0,0,1,47.74,31Z"/></svg>