<svg id="Capa_1" data-name="Capa 1" xmlns="http://www.w3.org/2000/svg" viewBox="0 0 35.72 35.43"><defs><style>.cls-1{fill:#00e7ff;}</style></defs><title>IMSS_propinfonavit2</title><g id="TB4mfE"><path class="cls-1" d="M28.82,35H8.73C6,34.21,5.4,32.19,5.68,29.71c-1.53-.23-1.87-.62-1.87-2.07,0-2.73,0-5.47,0-8.2A1.51,1.51,0,0,1,4.55,18a5,5,0,0,1,1.11-.31V4.38a5.44,5.44,0,0,1,.08-1,3.83,3.83,0,0,1,3-2.93H23.3a7.79,7.79,0,0,0,.51.63c2.53,2.53,5.05,5.06,7.6,7.56a1.52,1.52,0,0,1,.5,1.2c0,7.07,0,14.14,0,21.21a4.64,4.64,0,0,1-.06.91A3.84,3.84,0,0,1,28.82,35ZM8,29.63c-.28,2.5.11,3.15,2.47,3.12,5.72-.07,11.45,0,17.17,0,1.68,0,2.09-.4,2.08-2.08q0-10-.08-19.93c0-.22,0-.44-.05-.69H25.11a2.48,2.48,0,0,1-2.74-2.76c0-1.5,0-3,0-4.55-.3,0-.52,0-.75,0-4,0-7.92,0-11.88,0-1.4,0-1.87.49-1.87,1.91V17c0,.25,0,.49,0,.79h17.4c1.18,0,1.68.51,1.68,1.69v8.28c0,1.48-.43,1.91-1.92,1.91H8ZM13,27.14a26.19,26.19,0,0,0,3.66-.48c1.35-.37,1.92-1.56,1.85-3.31a2.5,2.5,0,0,0-2.11-2.47,18.11,18.11,0,0,0-3-.12c-.12,0-.34.25-.35.38C13,23.05,13,25,13,27.14Zm-4-2.31c.56-.06,1-.08,1.42-.16a2,2,0,0,0,1.68-2.07,1.83,1.83,0,0,0-1.71-1.84,11.73,11.73,0,0,0-2.37,0c-.15,0-.4.35-.4.55,0,1.2,0,2.4,0,3.6v2h1.4Zm14-.35V23.3H21V21.89h2.28V20.76H19.54v6.16H21V24.48Z"/><path class="cls-1" d="M14.54,25.91V21.85a2.06,2.06,0,0,1,2.1.55A2.61,2.61,0,0,1,16.8,25,2.15,2.15,0,0,1,14.54,25.91Z"/><path class="cls-1" d="M9.14,23.82V21.6a6,6,0,0,1,1.45.63,1,1,0,0,1,0,.94A6,6,0,0,1,9.14,23.82Z"/></g></svg>