<svg id="Capa_1" data-name="Capa 1" xmlns="http://www.w3.org/2000/svg" viewBox="0 0 79.09 78.8"><defs><style>.cls-1{fill:#00e7ff;}.cls-2{fill:#fff;}</style></defs><title>IMSS_propafiliatorios</title><path class="cls-1" d="M39.54.82C9.54.82,1,9.4,1,39.4S9.56,78,39.54,78,78.12,69.41,78.12,39.4,69.53.82,39.54.82Z"/><g id="_5XHIh1" data-name="5XHIh1"><path class="cls-2" d="M19,43a46,46,0,0,1-3.28-3.64,10.93,10.93,0,0,1,.94-14.23c3.65-4,8.34-5.88,13.58-6.49,6.73-.77,13,.36,18.55,4.6a13.07,13.07,0,0,1,4.85,7,2,2,0,0,0,1,1.06,20.82,20.82,0,0,1,7.09,4.27c5.07,4.91,4.93,11.73-.34,16.44-.51.45-1,.87-1.69,1.41,1,1.83,1.93,3.65,2.84,5.52a5.12,5.12,0,0,1,.24,1.5,5.69,5.69,0,0,1-1.52-.25c-2.29-1.14-4.54-2.38-6.84-3.51a2.74,2.74,0,0,0-1.65-.18c-7.6,1.66-14.8,1-21.27-3.72a11.83,11.83,0,0,1-4.33-5.6c-.38-1.07-1-1.12-1.85-.63-2.22,1.2-4.46,2.34-6.69,3.52-.78.42-1.55.84-2.32,0s-.33-1.47.07-2.22C17.36,46.21,18.21,44.54,19,43Zm1.81,2.75c1.37-.71,2.43-1.19,3.4-1.79a3.91,3.91,0,0,1,3.26-.37c6.26,1.55,12.31,1.05,18-2.26,2.7-1.58,4.85-3.74,5.46-6.94.79-4.15-1.26-7.13-4.45-9.39-4.86-3.44-10.39-4.21-16.16-3.49A18.09,18.09,0,0,0,19,26.7a8.3,8.3,0,0,0-.15,12,17.78,17.78,0,0,0,2.31,2c1.43,1.08,1.53,1.36.7,3C21.61,44.24,21.32,44.81,20.85,45.7ZM54.12,32.63c-.75,4.1-1.22,5.38-2.8,7.28-3.66,4.4-8.57,6.43-14.07,7a81.52,81.52,0,0,1-8.57.05,12.93,12.93,0,0,0,6.44,6.39,23.61,23.61,0,0,0,16.44,1.89,5.63,5.63,0,0,1,4.69.65c1.3.81,2.72,1.43,4.23,2.21a4.85,4.85,0,0,0-.1-.48c-.51-1-1-2-1.54-3-.87-1.73-1.21-1.57.66-2.92a13,13,0,0,0,2.4-2.29A8.82,8.82,0,0,0,62,37.84,16.63,16.63,0,0,0,54.12,32.63Z"/></g></svg>