<svg id="Capa_1" data-name="Capa 1" xmlns="http://www.w3.org/2000/svg" viewBox="0 0 79.09 78.8"><defs><style>.cls-1{fill:#00e7ff;}.cls-2{fill:#fff;}</style></defs><title>IMSS_propafiliatorios</title><path class="cls-1" d="M39.54.71C9.45.71.85,9.31.85,39.4S9.47,78.1,39.54,78.1s38.7-8.6,38.7-38.7S69.62.71,39.54.71Z"/><path class="cls-2" d="M39.43,59.6h-11A1.46,1.46,0,0,1,26.84,58V50.57a8.88,8.88,0,0,1,7.59-8.79,10.86,10.86,0,0,1,1.28-.09h7.42a8.76,8.76,0,0,1,8.71,7.91,9.59,9.59,0,0,1,.06,1.07c0,2.46,0,4.91,0,7.36a1.38,1.38,0,0,1-1.57,1.57Z"/><path class="cls-2" d="M52.54,52.08c0-.92.06-1.81,0-2.7a9.42,9.42,0,0,0-7.85-8.25L43.57,41A8,8,0,0,0,48,34.19H58a7.44,7.44,0,0,1,7.47,7.45c0,3.38,0,6.76,0,10.14v.3Z"/><path class="cls-2" d="M31.89,34.19a8.16,8.16,0,0,0,4.42,6.87,9.46,9.46,0,0,0-7.64,3.12,10,10,0,0,0-2.35,7.93H15.11a1.42,1.42,0,0,1-1.53-1.5c0-2.58,0-5.16,0-7.74a8.81,8.81,0,0,1,8.74-8.67h9.56Z"/><path class="cls-2" d="M26.65,33.83A7.32,7.32,0,1,1,34,26.51,7.38,7.38,0,0,1,26.65,33.83Z"/><path class="cls-2" d="M39.93,26.61a7.31,7.31,0,1,1-7.4,7.3A7.34,7.34,0,0,1,39.93,26.61Z"/><path class="cls-2" d="M53.45,33.83a7.32,7.32,0,1,1,7.42-7.26A7.36,7.36,0,0,1,53.45,33.83Z"/></svg>